<?xml version="1.0" encoding="UTF-8"?>
<svg xmlns="http://www.w3.org/2000/svg" viewBox="0 0 138.37 138.37">
  <defs>
    <style>
      .cls-1 {
        fill: #50141b;
      }

      .cls-2 {
        fill: #b08e2f;
      }

      .cls-3 {
        fill: none;
        stroke: #b08e2f;
        stroke-miterlimit: 10;
      }
    </style>
  </defs>
  <g id="Layer_2" data-name="Layer 2">
    <rect class="cls-1" width="138.37" height="138.37"/>
    <circle class="cls-1" cx="69.19" cy="69.19" r="61.55"/>
  </g>
  <g id="Layer_1" data-name="Layer 1">
    <g>
      <circle class="cls-3" cx="69.19" cy="69.19" r="52.63"/>
      <circle class="cls-3" cx="69.19" cy="69.19" r="42.63"/>
      <g>
        <path class="cls-2" d="M23.39,74.07c.01,4.72.76,9.51,2.26,14.15-2.42-4.23-4.2-8.91-5.24-13.82l2.98-.33h0Z"/>
        <path class="cls-2" d="M28.81,91.21c1.83,4.35,4.35,8.49,7.51,12.2-3.85-2.98-7.29-6.62-10.14-10.75l2.63-1.45h0Z"/>
        <path class="cls-2" d="M24.92,56.15c-1.79,4.37-2.92,9.09-3.3,13.94-.61-4.83-.49-9.84.42-14.78l2.88.83h0Z"/>
        <path class="cls-2" d="M46.97,28.62c-4.35,1.83-8.49,4.35-12.2,7.51,2.98-3.85,6.62-7.29,10.75-10.14l1.45,2.63h0Z"/>
        <path class="cls-2" d="M33.21,40.2c-3.33,3.35-6.19,7.27-8.4,11.6,1.28-4.7,3.33-9.27,6.06-13.48l2.34,1.88h0Z"/>
        <path class="cls-2" d="M105.16,97.78c3.33-3.35,6.19-7.27,8.4-11.6-1.28,4.7-3.33,9.27-6.06,13.48l-2.34-1.88h0Z"/>
        <path class="cls-2" d="M91.4,109.36c4.35-1.83,8.49-4.35,12.2-7.51-2.98,3.85-6.62,7.29-10.75,10.14l-1.45-2.63h0Z"/>
        <path class="cls-2" d="M64.11,23.2c-4.72.01-9.51.76-14.15,2.26,4.23-2.42,8.91-4.2,13.82-5.24l.33,2.98h0Z"/>
        <path class="cls-2" d="M40.39,104.96c3.35,3.33,7.27,6.19,11.6,8.4-4.7-1.28-9.27-3.33-13.48-6.06l1.88-2.34h0Z"/>
        <path class="cls-2" d="M56.35,113.26c4.37,1.79,9.09,2.92,13.94,3.3-4.83.61-9.84.49-14.78-.42l.83-2.88h0Z"/>
        <path class="cls-2" d="M74.26,114.79c4.72-.01,9.51-.76,14.15-2.26-4.23,2.42-8.91,4.2-13.82,5.24l-.33-2.98h0Z"/>
        <path class="cls-2" d="M109.56,46.77c-1.83-4.35-4.35-8.49-7.51-12.2,3.85,2.98,7.29,6.62,10.14,10.75l-2.63,1.45h0Z"/>
        <path class="cls-2" d="M97.98,33.02c-3.35-3.33-7.27-6.19-11.6-8.4,4.7,1.28,9.27,3.33,13.48,6.06l-1.88,2.34h0Z"/>
        <path class="cls-2" d="M82.03,24.72c-4.37-1.79-9.09-2.92-13.94-3.3,4.83-.61,9.84-.49,14.78.42l-.83,2.88h0Z"/>
        <path class="cls-2" d="M114.98,63.91c-.01-4.72-.76-9.51-2.26-14.15,2.42,4.23,4.2,8.91,5.24,13.82l-2.98.33h0Z"/>
        <path class="cls-2" d="M113.46,81.83c1.79-4.37,2.92-9.09,3.3-13.94.61,4.83.49,9.84-.42,14.78l-2.88-.83h0Z"/>
      </g>
    </g>
    <path class="cls-2" d="M102.43,48.31l-.64-1.38-.46.22-.05-.05s-.18.1-.28-.12-.35-.26-.48-.2-.22,0-.22,0l.32.69-25.77,12.02-.12-.18-5.64,2.63-.41-.1-6.44,3s-.05-.18-.19-.11-.35.29-.65.26c-.3-.03-.5-.52-.54-.66-.04-.14-.27,0-.27,0l.46.99s-.11.05-.15.1c-.04.05-.05.15-.05.15l-.19-.02s-.1.08-.21.25c-.11.17-.53.31-.92.26s-.74-.42-1.17-.41-.43.55-.3.7c.13.15.31-.26.31-.26,0,0,.11-.03.25.04.14.07.3.16.5.66.2.51.41.42.41.42,0,0-.07.21-.07.46,0,.25.13.59.13.59l-.27.17s.18.39.14.83c-.04.44-.38.28-.38.28,0,0-.02.24.13.33.14.09.23.05.23.05,0,0-.07.16-.6.92-.53.76-1.89,1.99-1.89,1.99l.09.06s-1.09,1.96-3.53,3.22c-2.44,1.27-3.47-.19-3.47-.19,0,0-1.71.97-3.02,1.7-1.31.74-6.84,3.57-9.22,4.7s-2.87.51-2.87.51c0,0,.24.02.26-.31.03-.35-.54-.54-.81-.24-.26.29.13.99,1.14,1.82,1.01.84,2.51,4.3,2.75,6.76.24,2.46-.77,4.74.28,4.33,1.05-.4.23-.82.23-.82,0,0-.34-.35.36-1.18.7-.83,6.98-5.44,11.33-9.2,4.35-3.76,8.64-8.11,8.64-8.11,0,0,.37.25.52.1s.63-1.14,1.72-.51c1.09.63,1.76.74,2.69.09.93-.65,1.26-1.43.77-3.01-.48-1.58.64-2.53,2.37-3.34s3.03-1.54,3.56-2.33,1.48-1.28,3.09-2.03,1.93-1.15,1.93-1.15c1.24-.45,4.92-2.84,7.11-3.99,2.19-1.15,3.82-.6,4.27-1.99.03-.1.05-.19.07-.28l15.98-7.45-.64-1.38-1.8.84-.13-.28,1.8-.84ZM63.88,75.24c-.85.66-1.5.57-2,.05-.5-.53-1.1-.64-1.1-.64,0,0,0-.22.22-.48.22-.26.69-.65.69-.65l.24.08s-.18.47.32,1.23c.42.64.71.47.71.47,0,0-.46-.34-.63-1.08-.17-.74.12-.94.12-.94l-.13-.29s.52-.38.76-.54,1.16-.38,1.57.56c.41.94.08,1.57-.77,2.24ZM61.63,65.79c.02-.08.13-.11.13-.11l.1.22-.19.09s-.07-.12-.04-.2ZM62.42,67.09l.1.22-.19.09-.1-.22.19-.09ZM63.7,69.9c-.08.04-.2.03-.24-.08l-.87-1.86.19-.09.81,1.74c.1.22.32.19.32.19l-.21.1ZM66.73,63.36l.68-.32.1.22-.68.32-.1-.22ZM67.39,64.77l.68-.32.1.22-.68.32-.1-.22ZM69.82,66.44c-.22.7-1.16,1.05-1.16,1.05l-.9-1.93s.68-.32.68-.32l.27.57.49-.23c.2-.09.84.16.62.86ZM88.89,54.95l-2.28,1.06c-.18-.13-.33-.18-.33-.18l2.48-1.16.13.28ZM100.14,49.71l-10.63,4.96-.13-.28,10.63-4.96.13.28Z"/>
    <path class="cls-2" d="M41.68,41.76c.27.22,11.52,9.67,21.09,17.7,9.57,8.03,26.98,23.51,26.98,23.51l-1.01,1.21c-.43.51-.72.66-.72.66,0,0,.19,2.1,1.77,3.06,1.57.96,2.09.73,2.71,1.24s-.09,1.19.67,1.15.78-1.52-.1-1.82c-.88-.31-3.07-1.59-3.43-2.56-.36-.97-.09-.94-.09-.94l1.17-1.39h0s1.53,1.01,3.85,2.87c2.2,1.77,4.96,3.96,4.96,3.96l-.21.26,1.34,1.12c.46.39,1.07-.54,1.07-.54,0,0,.81-.77.35-1.15l-1.34-1.12-.21.26s-2.64-2.34-4.76-4.2c-2.24-1.96-3.5-3.29-3.5-3.29h0s0,0,0,0c.74-.89,1.38-1.64,1.5-1.79.31-.37.54-.49.54-.49,0,0-.65-3.27-4.2-4.83-3.55-1.56-4.28-2.13-4.39-2.74s.43-.63-.2-.88c-.63-.26-.89.99-.38,1.74.51.75,1.22,1.04,4.36,2.77,3.15,1.73,3.41,3.71,3.41,3.71l-1.4,1.67s-18.27-14.46-27.84-22.49c-9.57-8.03-20.82-17.47-21.09-17.7s-.67.33-.67.33c0,0-.48.49-.21.71Z"/>
  </g>
</svg>