<?xml version="1.0" encoding="UTF-8" standalone="no"?>
<!-- Created with Inkscape (http://www.inkscape.org/) -->

<svg
   version="1.1"
   id="svg1"
   width="53.147068"
   height="37.941467"
   viewBox="0 0 53.147068 37.941467"
   xmlns="http://www.w3.org/2000/svg"
   xmlns:svg="http://www.w3.org/2000/svg">
  <defs
     id="defs1">
    <clipPath
       clipPathUnits="userSpaceOnUse"
       id="clipPath2">
      <path
         d="M 0,28.456 H 39.86 V 0 H 0 Z"
         transform="translate(-15.646401,-24.085001)"
         id="path2" />
    </clipPath>
    <clipPath
       clipPathUnits="userSpaceOnUse"
       id="clipPath4">
      <path
         d="M 0,28.456 H 39.86 V 0 H 0 Z"
         transform="translate(-39.825101,-28.381801)"
         id="path4" />
    </clipPath>
  </defs>
  <g
     id="layer-MC0">
    <path
       id="path1"
       d="m 0,0 c -0.461,0.069 -0.936,0.104 -1.419,0.101 -5.501,10e-4 -9.963,-4.455 -9.962,-9.958 0.002,-5.5 4.464,-9.958 9.959,-9.958 0.481,0.004 0.962,0.037 1.422,0.102 l 0.033,-4.296 c -0.476,-0.047 -0.958,-0.076 -1.452,-0.076 -7.855,0 -14.224,6.368 -14.227,14.228 0,7.855 6.37,14.228 14.225,14.228 0.479,0 0.957,-0.025 1.419,-0.074 z"
       style="fill:#231f20;fill-opacity:1;fill-rule:nonzero;stroke:none"
       transform="matrix(1.3333333,0,0,-1.3333333,20.861867,5.8281333)"
       clip-path="url(#clipPath2)" />
    <path
       id="path3"
       d="m 0,0 c -0.467,0.048 -0.937,0.074 -1.419,0.074 -7.857,0 -14.224,-6.372 -14.226,-14.227 0.002,-7.86 6.371,-14.227 14.23,-14.227 0.49,-0.002 0.976,0.027 1.45,0.074 l -0.03,4.294 c -0.469,-0.063 -0.942,-0.096 -1.424,-0.096 -4.767,0 -8.755,3.352 -9.726,7.834 l 0.011,-0.007 8.292,0.002 -0.003,4.269 -8.285,-0.003 -0.015,0.003 c 0.982,4.473 4.966,7.817 9.728,7.816 0.483,0.001 0.959,-0.035 1.422,-0.102 z"
       style="fill:#231f20;fill-opacity:1;fill-rule:nonzero;stroke:none"
       transform="matrix(1.3333333,0,0,-1.3333333,53.100133,0.09906667)"
       clip-path="url(#clipPath4)" />
  </g>
</svg>
