<?xml version="1.0" encoding="UTF-8" standalone="no"?>
<!-- Created with Inkscape (http://www.inkscape.org/) -->

<svg
   version="1.1"
   id="svg1"
   width="580.05334"
   height="666.66669"
   viewBox="0 0 580.05334 666.66669"
   xmlns="http://www.w3.org/2000/svg"
   xmlns:svg="http://www.w3.org/2000/svg">
  <defs
     id="defs1">
    <clipPath
       clipPathUnits="userSpaceOnUse"
       id="clipPath2">
      <path
         d="M 0,500 H 435.04 V 0 H 0 Z"
         transform="translate(-106.6362,-464.81241)"
         id="path2" />
    </clipPath>
    <clipPath
       clipPathUnits="userSpaceOnUse"
       id="clipPath4">
      <path
         d="M 0,500 H 435.04 V 0 H 0 Z"
         transform="translate(-74.936802,-138.756)"
         id="path4" />
    </clipPath>
    <clipPath
       clipPathUnits="userSpaceOnUse"
       id="clipPath6">
      <path
         d="M 0,500 H 435.04 V 0 H 0 Z"
         transform="translate(-142.6137,-440.46691)"
         id="path6" />
    </clipPath>
    <clipPath
       clipPathUnits="userSpaceOnUse"
       id="clipPath8">
      <path
         d="M 0,500 H 435.04 V 0 H 0 Z"
         transform="translate(-435.04011,-292.7169)"
         id="path8" />
    </clipPath>
    <clipPath
       clipPathUnits="userSpaceOnUse"
       id="clipPath10">
      <path
         d="M 0,500 H 435.04 V 0 H 0 Z"
         transform="translate(-328.40391,-464.81241)"
         id="path10" />
    </clipPath>
    <clipPath
       clipPathUnits="userSpaceOnUse"
       id="clipPath12">
      <path
         d="M 0,500 H 435.04 V 0 H 0 Z"
         transform="translate(-360.10321,-138.756)"
         id="path12" />
    </clipPath>
    <clipPath
       clipPathUnits="userSpaceOnUse"
       id="clipPath14">
      <path
         d="M 0,500 H 435.04 V 0 H 0 Z"
         transform="translate(-292.42641,-440.46691)"
         id="path14" />
    </clipPath>
  </defs>
  <g
     id="layer-MC0" />
  <g
     id="layer-MC1">
    <path
       id="path1"
       d="m 0,0 c 29.009,-33.092 54.562,-69.634 51.394,-134.9 -22.155,-24.803 -55.916,-36.508 -61.672,-78.307 -3.095,-22.49 2.29,-48.78 0,-77.089 9.79,0.46 21.567,0.46 30.839,1.286 -0.733,-17.02 -1.286,-35.376 -1.286,-55.247 0,-18.103 1.436,-52.462 -1.214,-59.234 -2.55,-6.517 -20.905,-17.078 -32.192,-24.274 v 107.917 c -6.618,0.701 -20.378,-0.465 -30.833,0 -1.098,19.583 -2.954,40.4 -1.286,57.819 5.039,52.712 28.742,84.378 62.953,107.857 2.284,60.524 -23.327,93.161 -48.822,125.908 C -23.896,-16.358 -11.731,-8.396 0,0"
       style="fill:#d0a449;fill-opacity:1;fill-rule:evenodd;stroke:none"
       transform="matrix(1.3333333,0,0,-1.3333333,142.1816,46.9168)"
       clip-path="url(#clipPath2)" />
    <path
       id="path3"
       d="m 0,0 c 1.178,-32.679 -2.104,-74.486 -0.42,-110.489 -10.409,-10.576 -20.483,-21.486 -34.686,-28.267 V -26.981 C -24.661,-17.722 -11.213,-8.49 0,0"
       style="fill:#d0a449;fill-opacity:1;fill-rule:evenodd;stroke:none"
       transform="matrix(1.3333333,0,0,-1.3333333,99.915733,481.65867)"
       clip-path="url(#clipPath4)" />
    <path
       id="path5"
       d="m 0,0 c 16.593,-36.508 26.505,-79.703 24.408,-134.903 -24.434,-20.958 -53.459,-37.331 -61.667,-74.519 10.51,-16.613 39.99,-23.893 44.025,-33.639 3.047,-7.362 -0.346,-66.301 -0.346,-99.978 10.915,5.97 32.601,19.826 35.141,28.267 1.628,5.41 0.295,69.892 0.836,95.072 -15.27,12.139 -32.255,22.563 -43.683,38.544 5.724,28.539 30.833,37.69 52.675,50.109 C 70.599,-80.668 51.082,-13.23 35.161,27.038 35.161,27.038 6.704,11.764 0,0"
       style="fill:#d0a449;fill-opacity:1;fill-rule:evenodd;stroke:none"
       transform="matrix(1.3333333,0,0,-1.3333333,190.1516,79.377467)"
       clip-path="url(#clipPath6)" />
    <path
       id="path7"
       d="m 0,0 c -2.426,19.189 -29.056,21.565 -37.258,37.258 -15.929,30.478 15.861,72.896 11.559,107.923 -3.99,32.532 -28.581,42.7 -51.39,61.669 -47.375,1.553 -92.819,-1.535 -140.431,-1.972 -47.612,0.437 -93.056,3.525 -140.431,1.972 -22.809,-18.969 -47.401,-29.137 -51.39,-61.669 -4.302,-35.027 27.488,-77.445 11.559,-107.923 C -405.984,21.565 -432.614,19.189 -435.04,0 c 11.945,3.908 40.515,2.305 60.386,2.569 -34.875,-41.785 -52.482,-100.836 -55.248,-174.73 8.956,5.139 28.556,12.714 34.692,25.694 5.368,11.354 3.284,37.909 6.251,57.287 5.006,32.683 14.77,56.661 24.583,78.903 3.983,9.022 12.882,18.466 16.934,23.563 5.055,6.347 14.578,14.722 13.544,17.547 -12.881,0.455 -37.855,-0.324 -54.887,0 17.032,17.307 32.423,32.773 28.262,65.525 -3.148,24.822 -21.471,55.517 -11.559,82.225 27.171,-4.407 67.789,-2.068 102.989,-2.47 h 47.815 c 0.2,0.003 0.393,-0.002 0.592,0 2.13,0.019 4.205,-0.016 6.332,0 0.199,-0.002 0.392,0.003 0.592,0 h 47.814 c 35.201,0.402 75.819,-1.937 102.99,2.47 9.912,-26.708 -8.412,-57.403 -11.559,-82.225 -4.161,-32.752 11.23,-48.218 28.262,-65.525 -17.032,-0.324 -42.006,0.455 -54.887,0 -1.035,-2.825 8.489,-11.2 13.544,-17.547 4.052,-5.097 12.951,-14.541 16.934,-23.563 9.813,-22.242 19.577,-46.22 24.582,-78.903 2.968,-19.378 0.884,-45.933 6.252,-57.287 6.136,-12.98 25.736,-20.555 34.691,-25.694 C -7.904,-98.267 -25.512,-39.216 -60.386,2.569 -40.515,2.305 -11.945,3.908 0,0"
       style="fill:#d0a449;fill-opacity:1;fill-rule:evenodd;stroke:none"
       transform="matrix(1.3333333,0,0,-1.3333333,580.05347,276.37747)"
       clip-path="url(#clipPath8)" />
    <path
       id="path9"
       d="m 0,0 c -29.009,-33.092 -54.562,-69.634 -51.394,-134.9 22.155,-24.803 55.916,-36.508 61.672,-78.307 3.095,-22.49 -2.29,-48.78 0,-77.089 -9.79,0.46 -21.567,0.46 -30.839,1.286 0.733,-17.02 1.286,-35.376 1.286,-55.247 0,-18.103 -1.436,-52.462 1.214,-59.234 2.55,-6.517 20.905,-17.078 32.192,-24.274 v 107.917 c 6.618,0.701 20.378,-0.465 30.833,0 1.098,19.583 2.954,40.4 1.286,57.819 -5.039,52.712 -28.742,84.378 -62.953,107.857 -2.284,60.524 23.327,93.161 48.822,125.908 C 23.896,-16.358 11.731,-8.396 0,0"
       style="fill:#d0a449;fill-opacity:1;fill-rule:evenodd;stroke:none"
       transform="matrix(1.3333333,0,0,-1.3333333,437.87187,46.9168)"
       clip-path="url(#clipPath10)" />
    <path
       id="path11"
       d="m 0,0 c -1.178,-32.679 2.104,-74.486 0.42,-110.489 10.409,-10.576 20.483,-21.486 34.686,-28.267 V -26.981 C 24.661,-17.722 11.213,-8.49 0,0"
       style="fill:#d0a449;fill-opacity:1;fill-rule:evenodd;stroke:none"
       transform="matrix(1.3333333,0,0,-1.3333333,480.1376,481.65867)"
       clip-path="url(#clipPath12)" />
    <path
       id="path13"
       d="m 0,0 c -16.593,-36.508 -26.505,-79.703 -24.409,-134.903 24.435,-20.958 53.46,-37.331 61.668,-74.519 -10.51,-16.613 -39.99,-23.893 -44.025,-33.639 -3.047,-7.362 0.346,-66.301 0.346,-99.978 -10.915,5.97 -32.601,19.826 -35.141,28.267 -1.628,5.41 -0.295,69.892 -0.836,95.072 15.27,12.139 32.255,22.563 43.683,38.544 -5.724,28.539 -30.833,37.69 -52.675,50.109 -19.21,50.379 0.307,117.817 16.228,158.085 0,0 28.457,-15.274 35.161,-27.038"
       style="fill:#d0a449;fill-opacity:1;fill-rule:evenodd;stroke:none"
       transform="matrix(1.3333333,0,0,-1.3333333,389.90187,79.377467)"
       clip-path="url(#clipPath14)" />
  </g>
</svg>
