<?xml version="1.0" encoding="UTF-8" standalone="no"?>
<!-- Created with Inkscape (http://www.inkscape.org/) -->

<svg
   version="1.1"
   id="svg1"
   width="579.92133"
   height="666.66669"
   viewBox="0 0 579.92133 666.66669"
   xmlns="http://www.w3.org/2000/svg"
   xmlns:svg="http://www.w3.org/2000/svg">
  <defs
     id="defs1">
    <clipPath
       clipPathUnits="userSpaceOnUse"
       id="clipPath2">
      <path
         d="M 0,500 H 434.941 V 0 H 0 Z"
         transform="translate(-203.4757,-477.05791)"
         id="path2" />
    </clipPath>
    <clipPath
       clipPathUnits="userSpaceOnUse"
       id="clipPath4">
      <path
         d="M 0,500 H 434.941 V 0 H 0 Z"
         transform="translate(-76.302099,-437.72761)"
         id="path4" />
    </clipPath>
    <clipPath
       clipPathUnits="userSpaceOnUse"
       id="clipPath6">
      <path
         d="M 0,500 H 434.941 V 0 H 0 Z"
         transform="translate(-34.684201,-423.52481)"
         id="path6" />
    </clipPath>
    <clipPath
       clipPathUnits="userSpaceOnUse"
       id="clipPath8">
      <path
         d="M 0,500 H 434.941 V 0 H 0 Z"
         transform="translate(-38.151001,-271.6707)"
         id="path8" />
    </clipPath>
    <clipPath
       clipPathUnits="userSpaceOnUse"
       id="clipPath10">
      <path
         d="M 0,500 H 434.941 V 0 H 0 Z"
         transform="translate(-62.429302,-203.93721)"
         id="path10" />
    </clipPath>
    <clipPath
       clipPathUnits="userSpaceOnUse"
       id="clipPath12">
      <path
         d="M 0,500 H 434.941 V 0 H 0 Z"
         transform="translate(-231.46531,-477.05791)"
         id="path12" />
    </clipPath>
    <clipPath
       clipPathUnits="userSpaceOnUse"
       id="clipPath14">
      <path
         d="M 0,500 H 434.941 V 0 H 0 Z"
         transform="translate(-358.63891,-437.72761)"
         id="path14" />
    </clipPath>
    <clipPath
       clipPathUnits="userSpaceOnUse"
       id="clipPath16">
      <path
         d="M 0,500 H 434.941 V 0 H 0 Z"
         transform="translate(-400.25691,-423.52481)"
         id="path16" />
    </clipPath>
    <clipPath
       clipPathUnits="userSpaceOnUse"
       id="clipPath18">
      <path
         d="M 0,500 H 434.941 V 0 H 0 Z"
         transform="translate(-396.79001,-271.6707)"
         id="path18" />
    </clipPath>
    <clipPath
       clipPathUnits="userSpaceOnUse"
       id="clipPath20">
      <path
         d="M 0,500 H 434.941 V 0 H 0 Z"
         transform="translate(-372.51171,-203.93721)"
         id="path20" />
    </clipPath>
  </defs>
  <g
     id="layer-MC0" />
  <g
     id="layer-MC1" />
  <g
     id="layer-MC2">
    <path
       id="path1"
       d="m 0,0 c -30.051,-37.283 -53.988,-77.989 -49.714,-134.375 2.307,-30.44 14.785,-57.083 26.59,-81.939 15.141,-31.868 38.709,-69.987 20.812,-109.248 -13.546,4.316 -20.793,14.585 -31.215,21.849 -3.942,17.945 -10.413,33.669 -21.966,44.795 -10.561,10.167 -27.087,14.923 -32.372,27.312 27.148,-9.673 43.603,-29.446 62.429,-46.978 -7.136,69.125 -56.342,114.78 -55.493,184.63 0.391,31.964 15.517,65.355 30.06,87.397 6.356,9.635 16.161,17.603 20.809,29.499 C -17.523,17.672 -8.059,9.5 0,0"
       style="fill:#d0a449;fill-opacity:1;fill-rule:evenodd;stroke:none"
       transform="matrix(1.3333333,0,0,-1.3333333,271.30093,30.589467)"
       clip-path="url(#clipPath2)" />
    <path
       id="path3"
       d="m 0,0 c 12.355,-5.076 20.969,-13.689 30.06,-21.851 -1.522,-54.937 3.048,-116.356 -2.312,-169.335 -13.058,11.241 -24.583,16.499 -34.684,22.944 -12.817,6.824 -24.636,14.59 -32.37,26.218 14.253,-8.252 24.189,-16.514 39.306,-23.214 z"
       style="fill:#d0a449;fill-opacity:1;fill-rule:evenodd;stroke:none"
       transform="matrix(1.3333333,0,0,-1.3333333,101.73613,83.029867)"
       clip-path="url(#clipPath4)" />
    <path
       id="path5"
       d="m 0,0 c 11.601,-6.152 21.096,-14.296 30.057,-22.942 -0.762,-33.511 1.532,-69.909 -1.154,-101.6 -13.53,5.369 -24.674,12.76 -34.719,20.659 -10.556,8.302 -22.746,16.039 -28.868,27.41 13.682,-6.008 22.61,-16.505 34.684,-24.036 z"
       style="fill:#d0a449;fill-opacity:1;fill-rule:evenodd;stroke:none"
       transform="matrix(1.3333333,0,0,-1.3333333,46.2456,101.96693)"
       clip-path="url(#clipPath6)" />
    <path
       id="path7"
       d="m 0,0 c 1.345,0.178 2.058,-0.243 2.312,-1.094 45.361,-21.684 92.146,-63.07 122.549,-105.972 14.433,-20.364 34.543,-52.655 21.965,-83.025 -0.266,-3.952 7.394,-6.05 4.626,-8.744 -14.487,7.797 -27.84,16.665 -36.996,29.499 -57.613,32.393 -117.57,-14.923 -100.581,-77.566 7.531,-0.93 6.445,6.29 12.715,6.557 8.682,-7.824 20.396,-12.776 26.591,-22.943 -11.142,-14.478 -24.93,-7.841 -38.151,2.183 -16.634,12.611 -34.496,28.219 -34.684,55.717 -0.245,36.079 26.44,68.187 62.432,69.921 32.01,1.538 53.298,-14.843 75.145,-30.593 10.399,30.753 -9.846,61.301 -26.591,84.124 C 79.139,-65.315 61.035,-43.542 45.09,-32.775 28.844,-21.805 8.971,-14.768 0,0"
       style="fill:#d0a449;fill-opacity:1;fill-rule:evenodd;stroke:none"
       transform="matrix(1.3333333,0,0,-1.3333333,50.868,304.43907)"
       clip-path="url(#clipPath8)" />
    <path
       id="path9"
       d="M 0,0 C 25.591,-8.233 43.509,-33.175 48.557,-64.457 36.651,-58.959 28.479,-49.93 18.5,-42.609 15.529,-25.387 8.423,-12.074 0,0"
       style="fill:#d0a449;fill-opacity:1;fill-rule:evenodd;stroke:none"
       transform="matrix(1.3333333,0,0,-1.3333333,83.239067,394.7504)"
       clip-path="url(#clipPath10)" />
    <path
       id="path11"
       d="m 0,0 c 30.051,-37.283 53.988,-77.989 49.714,-134.375 -2.307,-30.44 -14.785,-57.083 -26.59,-81.939 -15.141,-31.868 -38.709,-69.987 -20.812,-109.248 13.546,4.316 20.793,14.585 31.215,21.849 3.942,17.945 10.413,33.669 21.966,44.795 10.561,10.167 27.087,14.923 32.372,27.312 -27.148,-9.673 -43.603,-29.446 -62.429,-46.978 7.136,69.125 56.342,114.78 55.493,184.63 C 80.538,-61.99 65.412,-28.599 50.869,-6.557 44.513,3.078 34.708,11.046 30.06,22.942 17.523,17.672 8.059,9.5 0,0"
       style="fill:#d0a449;fill-opacity:1;fill-rule:evenodd;stroke:none"
       transform="matrix(1.3333333,0,0,-1.3333333,308.6204,30.589467)"
       clip-path="url(#clipPath12)" />
    <path
       id="path13"
       d="m 0,0 c -12.355,-5.076 -20.969,-13.689 -30.06,-21.851 1.522,-54.937 -3.048,-116.356 2.312,-169.335 13.058,11.241 24.583,16.499 34.684,22.944 12.817,6.824 24.636,14.59 32.37,26.218 C 25.053,-150.276 15.117,-158.538 0,-165.238 Z"
       style="fill:#d0a449;fill-opacity:1;fill-rule:evenodd;stroke:none"
       transform="matrix(1.3333333,0,0,-1.3333333,478.1852,83.029867)"
       clip-path="url(#clipPath14)" />
    <path
       id="path15"
       d="m 0,0 c -11.601,-6.152 -21.096,-14.296 -30.057,-22.942 0.762,-33.511 -1.532,-69.909 1.154,-101.6 13.53,5.369 24.674,12.76 34.719,20.659 10.556,8.302 22.746,16.039 28.868,27.41 C 21.002,-82.481 12.074,-92.978 0,-100.509 Z"
       style="fill:#d0a449;fill-opacity:1;fill-rule:evenodd;stroke:none"
       transform="matrix(1.3333333,0,0,-1.3333333,533.67587,101.96693)"
       clip-path="url(#clipPath16)" />
    <path
       id="path17"
       d="m 0,0 c -1.345,0.178 -2.058,-0.243 -2.312,-1.094 -45.361,-21.684 -92.146,-63.07 -122.549,-105.972 -14.433,-20.364 -34.543,-52.655 -21.965,-83.025 0.266,-3.952 -7.394,-6.05 -4.626,-8.744 14.487,7.797 27.84,16.665 36.996,29.499 57.613,32.393 117.57,-14.923 100.581,-77.566 -7.531,-0.93 -6.445,6.29 -12.715,6.557 -8.682,-7.824 -20.396,-12.776 -26.591,-22.943 11.142,-14.478 24.93,-7.841 38.151,2.183 16.634,12.611 34.496,28.219 34.684,55.717 0.245,36.079 -26.44,68.187 -62.432,69.921 -32.01,1.538 -53.298,-14.843 -75.145,-30.593 -10.399,30.753 9.846,61.301 26.591,84.124 12.193,16.621 30.297,38.394 46.242,49.161 C -28.844,-21.805 -8.971,-14.768 0,0"
       style="fill:#d0a449;fill-opacity:1;fill-rule:evenodd;stroke:none"
       transform="matrix(1.3333333,0,0,-1.3333333,529.05333,304.43907)"
       clip-path="url(#clipPath18)" />
    <path
       id="path19"
       d="m 0,0 c -25.591,-8.233 -43.509,-33.175 -48.557,-64.457 11.906,5.498 20.078,14.527 30.057,21.848 C -15.529,-25.387 -8.423,-12.074 0,0"
       style="fill:#d0a449;fill-opacity:1;fill-rule:evenodd;stroke:none"
       transform="matrix(1.3333333,0,0,-1.3333333,496.68227,394.7504)"
       clip-path="url(#clipPath20)" />
  </g>
</svg>
