<?xml version="1.0" encoding="UTF-8" standalone="no"?>
<!-- Created with Inkscape (http://www.inkscape.org/) -->

<svg
   version="1.1"
   id="svg1"
   width="468.97067"
   height="666.66669"
   viewBox="0 0 468.97067 666.66669"
   xmlns="http://www.w3.org/2000/svg"
   xmlns:svg="http://www.w3.org/2000/svg">
  <defs
     id="defs1">
    <clipPath
       clipPathUnits="userSpaceOnUse"
       id="clipPath2">
      <path
         d="M 0,500 H 351.728 V 0 H 0 Z"
         transform="translate(-22.330701,-101.5463)"
         id="path2" />
    </clipPath>
    <clipPath
       clipPathUnits="userSpaceOnUse"
       id="clipPath4">
      <path
         d="M 0,500 H 351.728 V 0 H 0 Z"
         transform="translate(-103.0786,-37.386501)"
         id="path4" />
    </clipPath>
    <clipPath
       clipPathUnits="userSpaceOnUse"
       id="clipPath6">
      <path
         d="M 0,500 H 351.728 V 0 H 0 Z"
         transform="translate(-58.932301,-500.00001)"
         id="path6" />
    </clipPath>
    <clipPath
       clipPathUnits="userSpaceOnUse"
       id="clipPath8">
      <path
         d="M 0,500 H 351.728 V 0 H 0 Z"
         transform="translate(-329.39761,-101.5463)"
         id="path8" />
    </clipPath>
    <clipPath
       clipPathUnits="userSpaceOnUse"
       id="clipPath10">
      <path
         d="M 0,500 H 351.728 V 0 H 0 Z"
         transform="translate(-248.6497,-37.386501)"
         id="path10" />
    </clipPath>
    <clipPath
       clipPathUnits="userSpaceOnUse"
       id="clipPath12">
      <path
         d="M 0,500 H 351.728 V 0 H 0 Z"
         transform="translate(-292.79601,-500.00001)"
         id="path12" />
    </clipPath>
  </defs>
  <g
     id="layer-MC0" />
  <g
     id="layer-MC1">
    <path
       id="path1"
       d="m 0,0 c 2.448,-1.738 4.068,-2.646 5.373,-3.854 7.513,-6.954 14.93,-14.001 22.43,-20.969 2.532,-2.352 3.69,-4.978 3.634,-8.434 -0.19,-11.691 -0.11,-24.746 -0.11,-36.439 0,-1.401 0.679,-2.392 2.297,-2.392 23.322,0 47.992,0.051 71.315,0.074 0.704,10e-4 1.28,-0.033 2.476,0.167 0,141.551 0.022,284.312 0.022,426.702 1.922,-1.058 3.393,-2.521 4.325,-3.384 8.242,-7.633 16.536,-15.224 24.486,-23.118 1.599,-1.588 2.548,-4.408 2.55,-6.66 0.103,-132.349 0.112,-264.698 -0.042,-397.046 -0.009,-7.384 0.296,-14.469 0.025,-22.155 -0.119,-3.353 1.357,-3.936 -7.161,-3.936 -30.51,0 -61.021,0.081 -91.532,0.011 -2.975,-0.007 -5.952,-0.142 -8.921,-0.108 -1.399,0.016 -3.068,0.214 -4.128,1.189 -8.271,7.604 -16.345,15.397 -24.654,22.964 -3.053,2.78 -2.482,5.939 -2.458,9.357 C 0.073,-47.258 0,-26.483 0,-5.709 0,-4.218 0,-2.728 0,0"
       style="fill:#d0a449;fill-opacity:1;fill-rule:nonzero;stroke:none"
       transform="matrix(1.3333333,0,0,-1.3333333,29.774267,531.2716)"
       clip-path="url(#clipPath2)" />
    <path
       id="path3"
       d="m 0,0 c -1.81,1.184 -3.495,1.989 -4.779,3.175 -7.832,7.232 -15.717,14.422 -23.237,21.933 -1.811,1.808 -3.191,4.752 -3.258,7.211 -0.331,12.039 -0.15,24.092 -0.15,36.738 1.629,-1.085 3.145,-1.834 4.313,-2.914 7.719,-7.143 15.595,-14.16 22.895,-21.667 2.247,-2.31 3.903,-5.983 4.029,-9.097 C 0.281,23.799 0,12.192 0,0"
       style="fill:#d0a449;fill-opacity:1;fill-rule:nonzero;stroke:none"
       transform="matrix(1.3333333,0,0,-1.3333333,137.43813,616.818)"
       clip-path="url(#clipPath4)" />
    <path
       id="path5"
       d="m 0,0 v -342.384 h -27.321 c 0,4.104 -0.016,7.939 -0.132,11.725 -0.084,2.752 0.187,4.536 -0.899,5.427 -8.266,6.791 -17.599,15.938 -25.423,23.183 -1.199,1.11 -2.729,2.488 -4.626,3.785 -0.143,-1.652 -0.304,-2.687 -0.312,-3.724 -0.114,-13.471 -0.302,-26.944 -0.18,-40.414 0.016,-1.667 1.357,-3.643 2.687,-4.927 7.967,-7.69 16.002,-15.326 24.295,-22.703 1.488,-1.325 4.273,-1.888 6.469,-1.908 16.425,-0.149 32.853,-0.047 49.279,-0.116 1.354,-0.005 4.664,-0.051 7.514,-0.051 0.271,4.204 0.094,6.873 0.099,10.924 0.131,108.397 0.057,216.793 0.247,325.19 0.01,5.457 -0.787,8.51 -4.96,12.138 C 19.864,-17.878 12.663,-11.299 5.977,-5.13 4.468,-3.737 2.648,-1.972 0,0"
       style="fill:#d0a449;fill-opacity:1;fill-rule:nonzero;stroke:none"
       transform="matrix(1.3333333,0,0,-1.3333333,78.5764,0)"
       clip-path="url(#clipPath6)" />
    <path
       id="path7"
       d="m 0,0 c -2.448,-1.738 -4.068,-2.646 -5.373,-3.854 -7.513,-6.954 -14.93,-14.001 -22.43,-20.969 -2.532,-2.352 -3.69,-4.978 -3.634,-8.434 0.19,-11.691 0.11,-24.746 0.11,-36.439 0,-1.401 -0.679,-2.392 -2.297,-2.392 -23.322,0 -47.992,0.051 -71.315,0.074 -0.704,10e-4 -1.28,-0.033 -2.476,0.167 0,141.551 -0.022,284.312 -0.022,426.702 -1.922,-1.058 -3.393,-2.521 -4.325,-3.384 -8.242,-7.633 -16.536,-15.224 -24.486,-23.118 -1.599,-1.588 -2.548,-4.408 -2.55,-6.66 -0.103,-132.349 -0.112,-264.698 0.042,-397.046 0.009,-7.384 -0.296,-14.469 -0.025,-22.155 0.119,-3.353 -1.357,-3.936 7.161,-3.936 30.51,0 61.021,0.081 91.532,0.011 2.975,-0.007 5.952,-0.142 8.921,-0.108 1.399,0.016 3.068,0.214 4.128,1.189 8.271,7.604 16.345,15.397 24.654,22.964 3.053,2.78 2.482,5.939 2.458,9.357 C -0.073,-47.258 0,-26.483 0,-5.709 Z"
       style="fill:#d0a449;fill-opacity:1;fill-rule:nonzero;stroke:none"
       transform="matrix(1.3333333,0,0,-1.3333333,439.1968,531.2716)"
       clip-path="url(#clipPath8)" />
    <path
       id="path9"
       d="m 0,0 c 1.81,1.184 3.495,1.989 4.779,3.175 7.832,7.232 15.717,14.422 23.237,21.933 1.811,1.808 3.191,4.752 3.258,7.211 0.331,12.039 0.15,24.092 0.15,36.738 C 29.795,67.972 28.279,67.223 27.111,66.143 19.392,59 11.516,51.983 4.216,44.476 1.969,42.166 0.313,38.493 0.187,35.379 -0.281,23.799 0,12.192 0,0"
       style="fill:#d0a449;fill-opacity:1;fill-rule:nonzero;stroke:none"
       transform="matrix(1.3333333,0,0,-1.3333333,331.53293,616.818)"
       clip-path="url(#clipPath10)" />
    <path
       id="path11"
       d="m 0,0 v -342.384 h 27.321 c 0,4.104 0.016,7.939 0.132,11.725 0.084,2.752 -0.187,4.536 0.899,5.427 8.266,6.791 17.599,15.938 25.423,23.183 1.199,1.11 2.729,2.488 4.626,3.785 0.143,-1.652 0.304,-2.687 0.312,-3.724 0.114,-13.471 0.302,-26.944 0.18,-40.414 -0.016,-1.667 -1.357,-3.643 -2.687,-4.927 -7.967,-7.69 -16.002,-15.326 -24.295,-22.703 -1.488,-1.325 -4.273,-1.888 -6.469,-1.908 -16.425,-0.149 -32.853,-0.047 -49.279,-0.116 -1.354,-0.005 -4.664,-0.051 -7.514,-0.051 -0.271,4.204 -0.094,6.873 -0.099,10.924 -0.131,108.397 -0.057,216.793 -0.247,325.19 -0.01,5.457 0.787,8.51 4.96,12.138 6.873,5.977 14.074,12.556 20.76,18.725 C -4.468,-3.737 -2.648,-1.972 0,0"
       style="fill:#d0a449;fill-opacity:1;fill-rule:nonzero;stroke:none"
       transform="matrix(1.3333333,0,0,-1.3333333,390.39467,0)"
       clip-path="url(#clipPath12)" />
  </g>
</svg>
