<?xml version="1.0" encoding="UTF-8" standalone="no"?>
<!-- Created with Inkscape (http://www.inkscape.org/) -->

<svg
   version="1.1"
   id="svg1"
   width="710.0387"
   height="896.07599"
   viewBox="0 0 710.0387 896.07599"
   xmlns="http://www.w3.org/2000/svg"
   xmlns:svg="http://www.w3.org/2000/svg">
  <defs
     id="defs1">
    <clipPath
       clipPathUnits="userSpaceOnUse"
       id="clipPath2">
      <path
         d="M 0,690.057 H 550.529 V 0 H 0 Z"
         transform="translate(-514.96291,-404.54751)"
         id="path2" />
    </clipPath>
    <clipPath
       clipPathUnits="userSpaceOnUse"
       id="clipPath4">
      <path
         d="M 0,690.057 H 550.529 V 0 H 0 Z"
         transform="translate(-262.65991,-442.43791)"
         id="path4" />
    </clipPath>
    <clipPath
       clipPathUnits="userSpaceOnUse"
       id="clipPath6">
      <path
         d="M 0,690.057 H 550.529 V 0 H 0 Z"
         transform="translate(-64.382402,-364.80291)"
         id="path6" />
    </clipPath>
  </defs>
  <g
     id="layer-MC0">
    <path
       id="path1"
       d="m 0,0 c -1.449,16.416 -2.381,32.898 -4.491,49.229 -2.206,17.067 -5.62,34.024 -13.077,49.721 -10.934,23.018 -25.123,43.913 -42.425,62.66 -34.178,37.033 -76.086,61.831 -123.52,77.758 -17.272,5.8 -34.625,10.771 -53.268,10.83 -22.699,0.072 -44.138,-5.043 -65.208,-12.598 -51.904,-18.609 -96.704,-47.522 -130.993,-91.331 -16.314,-20.844 -30.412,-43.046 -37.035,-69.089 -12.012,-47.241 -11.721,-94.861 -2.957,-142.488 8.45,-45.923 24.245,-89.371 45.247,-131.073 31.273,-62.098 75.214,-112.899 133.107,-151.511 9.742,-6.497 19.957,-11.855 31.071,-16.038 22.632,-8.517 43.587,-3.858 63.325,7.119 33.167,18.446 61.614,43.037 87.058,71.103 41.184,45.429 69.126,98.394 89.033,156.019 C -9.612,-87.656 -1.217,-44.606 0,0 M 26.566,2.788 C 25.889,-45.194 16.507,-91.451 0.759,-136.58 c -22.078,-63.269 -53.487,-121.056 -99.425,-170.395 -27.718,-29.77 -59.041,-55.051 -94.271,-75.369 -11.9,-6.862 -25.287,-9.665 -38.636,-12.414 -11.726,-2.414 -22.632,1.224 -33.659,3.961 -19.262,4.782 -35.094,16.182 -50.955,27.279 -66.148,46.283 -113.542,107.896 -146.401,181.052 -17.051,37.961 -30.026,77.354 -37.038,118.471 -2.598,15.23 -4.385,30.659 -5.476,46.073 -2.782,39.308 1.108,78.04 12.712,115.763 6.105,19.848 17.395,37.159 29.394,53.864 37.736,52.536 88.695,87.223 148.856,109.25 16.71,6.119 33.693,11.381 51.382,13.917 24.58,3.524 48.55,1.254 72.452,-5.812 48.117,-14.224 92.011,-36.108 129.891,-69.253 C -30.174,173.345 -6.027,142.121 9.85,105.049 17.813,86.459 21.042,66.475 23.33,46.492 24.99,31.991 25.528,17.361 26.566,2.788"
       style="fill:#1e3c60;fill-opacity:1;fill-rule:nonzero;stroke:none"
       transform="matrix(1.3333333,0,0,-1.3333333,674.6172,368.67933)"
       clip-path="url(#clipPath2)" />
    <path
       id="path3"
       d="M 0,0 H 25.046 C 21.04,9.364 17.002,18.801 12.509,29.302 7.989,18.715 3.952,9.257 0,0 m -10.075,-47.456 c -0.106,-12.468 9.936,-22.686 22.425,-22.817 12.518,-0.131 22.758,9.92 22.815,22.395 0.055,12.198 -10.005,22.485 -22.182,22.682 -12.356,0.2 -22.954,-10.031 -23.058,-22.26 m -88.365,-4.108 c 1.54,1.275 2.548,2.018 3.452,2.871 16.527,15.586 35.549,27.226 56.61,35.562 3.905,1.546 6.165,3.964 7.991,7.801 9.99,20.995 18.028,42.992 31.3,62.325 3.422,4.984 7.276,9.673 11.249,14.916 1.555,-1.655 2.936,-2.742 3.832,-4.139 C 23.083,56.715 30.773,45.968 36.922,34.405 44.036,21.029 49.686,6.88 56.189,-6.831 c 0.953,-2.009 2.794,-4.234 4.761,-5.028 22.511,-9.085 43.017,-21.262 60.524,-38.236 0.49,-0.476 1.146,-0.78 2.475,-0.744 -1.562,3.805 -2.93,7.705 -4.718,11.402 -8.858,18.32 -22.884,32.203 -38.727,44.431 -5.837,4.505 -11.732,9.034 -18.056,12.784 -7.876,4.671 -11.379,11.923 -14.284,20.836 1.699,-0.413 2.914,-0.517 3.962,-0.99 69.963,-31.597 126.605,-78.386 165.3,-145.469 2.135,-3.701 3.17,-8.359 3.547,-12.673 0.528,-6.02 0.335,-12.175 -0.261,-18.202 -0.578,-5.852 -2.054,-11.615 -3.656,-17.584 -18.854,35.809 -36.954,71.969 -68.098,98.998 -0.428,-0.203 -0.856,-0.406 -1.285,-0.609 0.529,-1.658 1.004,-3.336 1.594,-4.972 8.097,-22.448 15.532,-45.091 19.998,-68.594 2.167,-11.407 3.686,-22.863 1.444,-34.463 -0.136,-0.706 -0.31,-1.411 -0.551,-2.086 -0.128,-0.356 -0.441,-0.645 -1.222,-1.731 -7.057,12.79 -14.737,24.775 -20.535,37.61 -13.005,28.789 -33.454,50.739 -59.322,68.144 -1.062,0.715 -2.18,1.345 -4.215,2.593 0.748,-2.033 1.05,-3.191 1.578,-4.235 8.874,-17.539 17.868,-35.017 26.651,-52.601 13.079,-26.186 24.767,-52.922 30.107,-81.934 1.106,-6.006 1.116,-12.215 1.631,-18.331 -0.496,-0.206 -0.992,-0.413 -1.488,-0.62 -1.291,1.185 -2.629,2.323 -3.867,3.563 -19.332,19.363 -38.401,39.033 -60.575,55.254 -5.927,4.336 -12.39,7.959 -18.72,11.718 -1.754,1.042 -3.916,1.398 -6.618,2.316 5.441,-56.844 10.793,-112.767 16.21,-169.369 14.623,8.255 27.516,17.561 39.191,28.377 11.634,10.779 22.646,22.228 34.677,34.121 0.522,-2.355 1.766,-4.692 1.365,-6.7 -2.229,-11.17 -4.715,-22.296 -7.452,-33.353 -0.671,-2.71 -2.174,-5.495 -4.036,-7.587 -19.437,-21.847 -38.454,-44.217 -62.088,-61.742 -9.799,-7.266 -20.873,-12.815 -31.393,-19.101 -3.529,-2.109 -6.887,-1.154 -8.515,2.21 -2.15,4.444 -4.695,9.341 -4.737,14.064 -0.539,60.221 -1.113,120.449 -0.648,180.667 0.168,21.639 3.076,43.259 4.789,64.883 0.157,1.978 0.72,3.923 1.232,6.605 30.19,-6.455 53.385,-24.094 76.164,-43.464 -0.52,1.469 -0.975,2.964 -1.567,4.404 -8.307,20.182 -20.968,37.583 -34.869,54.149 -5.206,6.205 -10.958,11.949 -16.247,18.087 -2.613,3.033 -4.319,3.02 -7.177,0.043 C 32.1,-97.036 8.81,-101.185 -10.455,-90.239 c -5.065,2.878 -9.382,7.16 -13.772,11.099 -2.028,1.819 -3.288,2.268 -5.33,0.139 -21.142,-22.049 -40.401,-45.418 -52.34,-73.972 -0.489,-1.17 -0.906,-2.371 -1.06,-3.903 22.358,19.38 45.514,37.195 76.327,43.74 1.228,-10.194 2.731,-19.707 3.469,-29.278 4.859,-63.044 2.382,-126.168 1.81,-189.27 -0.101,-11.147 -0.194,-22.294 -0.306,-33.441 -0.055,-5.344 -1.308,-10.255 -4.783,-14.533 -2.335,-2.874 -4.743,-3.602 -8.308,-2.151 -13.989,5.692 -26.546,13.828 -37.492,23.963 -15.379,14.239 -29.913,29.392 -44.764,44.197 -2.663,2.655 -4.995,5.645 -7.688,8.266 -5.029,4.895 -8.352,10.764 -9.871,17.524 -1.901,8.459 -3.423,17.003 -5.077,25.516 -0.191,0.988 -0.415,2.064 -0.214,3.013 0.396,1.869 1.079,3.677 1.643,5.511 1.388,-1.041 3.024,-1.87 4.128,-3.156 18.226,-21.228 38.882,-39.665 62.537,-54.675 2.044,-1.297 4.164,-2.473 6.81,-4.036 5.415,56.538 10.774,112.48 16.268,169.838 -4.647,-2.091 -8.753,-3.179 -11.952,-5.512 -11.789,-8.598 -23.825,-16.988 -34.742,-26.618 -14.096,-12.434 -27.214,-25.975 -40.721,-39.073 -0.808,-0.784 -1.331,-1.861 -1.987,-2.802 -0.616,0.221 -1.231,0.442 -1.847,0.663 0.537,6.664 0.468,13.443 1.715,19.971 5.393,28.226 16.635,54.373 29.376,79.92 8.837,17.722 17.911,35.326 26.864,52.99 0.635,1.252 1.153,2.565 2.139,4.78 -1.804,-0.954 -2.777,-1.365 -3.64,-1.94 -25.306,-16.859 -45.539,-38.082 -58.69,-65.927 -6.16,-13.044 -13.922,-25.331 -20.974,-37.952 -0.339,-0.606 -0.829,-1.127 -1.704,-2.295 -2.222,6.847 -2.608,13.233 -2.062,19.726 1.706,20.3 6.841,39.856 13.029,59.161 3.566,11.124 7.435,22.152 11.583,34.456 -2.033,-1.54 -3.237,-2.362 -4.341,-3.302 -14.954,-12.736 -26.459,-28.374 -36.486,-45.011 -9.019,-14.966 -16.987,-30.566 -25.402,-45.896 -1.015,-1.848 -1.926,-3.754 -2.885,-5.633 -0.425,-0.01 -0.85,-0.02 -1.276,-0.031 -1.102,5.856 -2.658,11.672 -3.185,17.579 -0.589,6.602 -0.538,13.303 -0.18,19.929 0.172,3.187 1.129,6.613 2.681,9.401 27.736,49.804 66.946,88.757 114.682,119.212 15.311,9.769 31.882,17.566 47.918,26.189 1.98,1.065 4.217,1.653 7.276,2.822 -2.425,-9.111 -6.075,-16.033 -13.454,-20.73 -14.702,-9.358 -28.454,-19.92 -40.291,-32.806 -8.189,-8.914 -14.978,-18.752 -19.453,-30.073 -0.583,-1.473 -1.039,-2.998 -1.515,-4.511 -0.163,-0.516 -0.206,-1.07 -0.448,-2.403"
       style="fill:#1e3c60;fill-opacity:1;fill-rule:nonzero;stroke:none"
       transform="matrix(1.3333333,0,0,-1.3333333,338.2132,318.1588)"
       clip-path="url(#clipPath4)" />
    <path
       id="path5"
       d="m 0,0 c -3.176,9.685 -3.04,18.907 -3.372,28.159 -0.604,16.824 8.676,29.287 17.683,41.844 28.247,39.381 65.265,68.682 107.547,91.434 17.131,9.219 35.344,16.427 53.062,24.554 1.611,0.739 3.209,1.506 5.978,2.807 -34.599,11.782 -69.067,17.69 -105.139,22.349 3.393,4.235 5.773,8.035 8.944,10.985 5.818,5.413 12.011,10.441 18.271,15.345 1.203,0.942 3.539,1.098 5.163,0.745 33.69,-7.306 66.65,-16.97 98.118,-31.236 3.391,-1.538 6.108,-1.344 9.368,0.133 31.477,14.268 64.459,23.855 98.147,31.178 1.409,0.306 3.379,0.33 4.442,-0.425 9.583,-6.808 18.69,-14.172 25.446,-23.994 0.472,-0.686 0.787,-1.481 1.462,-2.774 -35.304,-4.674 -69.988,-10.553 -104.716,-22.116 2.7,-1.287 4.472,-2.298 6.358,-3.007 48.789,-18.354 92.688,-44.609 130.379,-80.831 15.519,-14.914 28.668,-31.744 40.126,-49.978 4.701,-7.481 7.067,-15.324 7.423,-24.075 0.419,-10.302 0.256,-20.479 -3.073,-31.128 -3.183,4.805 -5.954,9.165 -8.899,13.405 -20.862,30.03 -42.988,58.936 -72.008,81.807 -38.912,30.668 -81.208,55.874 -125.359,78.127 -3.309,1.668 -6.302,1.411 -9.497,-0.195 C 164.538,152.35 125.134,128.542 88.025,100.848 56.795,77.543 32.983,47.706 10.833,16.247 7.264,11.177 3.945,5.932 0,0"
       style="fill:#1e3c60;fill-opacity:1;fill-rule:nonzero;stroke:none"
       transform="matrix(1.3333333,0,0,-1.3333333,73.8432,421.67213)"
       clip-path="url(#clipPath6)" />
  </g>
</svg>
