<?xml version="1.0" encoding="UTF-8" standalone="no"?>
<!-- Created with Inkscape (http://www.inkscape.org/) -->

<svg
   version="1.1"
   id="svg1"
   width="587.93732"
   height="666.66669"
   viewBox="0 0 587.93732 666.66669"
   xmlns="http://www.w3.org/2000/svg"
   xmlns:svg="http://www.w3.org/2000/svg">
  <defs
     id="defs1">
    <clipPath
       clipPathUnits="userSpaceOnUse"
       id="clipPath2">
      <path
         d="M 0,500 H 440.953 V 0 H 0 Z"
         transform="translate(-177.5638,-92.426505)"
         id="path2" />
    </clipPath>
    <clipPath
       clipPathUnits="userSpaceOnUse"
       id="clipPath4">
      <path
         d="M 0,500 H 440.953 V 0 H 0 Z"
         transform="translate(-157.8916,-274.76541)"
         id="path4" />
    </clipPath>
    <clipPath
       clipPathUnits="userSpaceOnUse"
       id="clipPath6">
      <path
         d="M 0,500 H 440.953 V 0 H 0 Z"
         transform="translate(-71.458902,-180.5769)"
         id="path6" />
    </clipPath>
    <clipPath
       clipPathUnits="userSpaceOnUse"
       id="clipPath8">
      <path
         d="M 0,500 H 440.953 V 0 H 0 Z"
         transform="translate(-116.6632,-258.56621)"
         id="path8" />
    </clipPath>
    <clipPath
       clipPathUnits="userSpaceOnUse"
       id="clipPath10">
      <path
         d="M 0,500 H 440.953 V 0 H 0 Z"
         transform="translate(-60.968002,-213.9858)"
         id="path10" />
    </clipPath>
    <clipPath
       clipPathUnits="userSpaceOnUse"
       id="clipPath12">
      <path
         d="M 0,500 H 440.953 V 0 H 0 Z"
         transform="translate(-263.38951,-92.426505)"
         id="path12" />
    </clipPath>
    <clipPath
       clipPathUnits="userSpaceOnUse"
       id="clipPath14">
      <path
         d="M 0,500 H 440.953 V 0 H 0 Z"
         transform="translate(-283.0618,-274.76541)"
         id="path14" />
    </clipPath>
    <clipPath
       clipPathUnits="userSpaceOnUse"
       id="clipPath16">
      <path
         d="M 0,500 H 440.953 V 0 H 0 Z"
         transform="translate(-369.49441,-180.5769)"
         id="path16" />
    </clipPath>
    <clipPath
       clipPathUnits="userSpaceOnUse"
       id="clipPath18">
      <path
         d="M 0,500 H 440.953 V 0 H 0 Z"
         transform="translate(-324.29011,-258.56621)"
         id="path18" />
    </clipPath>
    <clipPath
       clipPathUnits="userSpaceOnUse"
       id="clipPath20">
      <path
         d="M 0,500 H 440.953 V 0 H 0 Z"
         transform="translate(-379.98531,-213.9858)"
         id="path20" />
    </clipPath>
  </defs>
  <g
     id="layer-MC0" />
  <g
     id="layer-MC1" />
  <g
     id="layer-MC2">
    <path
       id="path1"
       d="m 0,0 v 6.643 c -0.001,70.815 0.051,141.631 -0.021,212.446 -0.05,49.665 -0.226,99.331 -0.491,148.995 -0.022,4.143 1.284,7.251 4.116,10.055 8.056,7.975 16.02,16.044 24.088,24.006 1.344,1.327 3.04,3.355 5.363,5.429 0.128,-2.463 0.281,-5.423 0.281,-6.999 C 33.351,366.987 33.307,333.399 33.357,299.81 33.487,213.199 33.62,126.587 33.909,39.976 33.925,35.203 32.453,31.749 29.141,28.528 21.116,20.727 13.304,12.706 5.337,4.844 4,3.524 2.351,1.944 0,0"
       style="fill:#d0a449;fill-opacity:1;fill-rule:nonzero;stroke:none"
       transform="matrix(1.3333333,0,0,-1.3333333,236.75173,543.43133)"
       clip-path="url(#clipPath2)" />
    <path
       id="path3"
       d="m 0,0 v -6.563 c 0.001,-68.716 0.154,-137.433 -0.13,-206.148 -0.055,-13.104 -0.785,-25.155 -0.785,-38.442 0,-2.082 -4.381,-5.889 -5.961,-7.517 -4.482,-4.616 -9.053,-8.166 -13.677,-12.645 -3.418,-3.312 -7.318,-3.554 -12.078,-3.425 -4.194,0.114 -7.52,0.392 -11.221,0.437 -15.406,0.187 -30.817,0.141 -46.225,0.047 -6.622,-0.041 -13.217,0.035 -20.186,0.035 0.667,1.689 0.943,2.291 1.785,3.888 5.407,10.261 10.367,19.18 15.551,29.806 8.076,16.555 21.427,27.412 33.561,39.798 1.881,1.921 4.107,3.505 6.173,5.245 0.7,0.25 1.088,0.445 1.138,-0.748 -1.563,-4.603 -2.649,-9.44 -4.783,-13.761 -4.931,-9.986 -10.369,-19.721 -15.814,-29.956 1.099,-0.221 1.846,-0.499 2.594,-0.501 10.786,-0.032 21.576,0.138 32.356,-0.115 4.05,-0.095 4.095,1.984 4.09,4.944 -0.052,34.288 -0.033,68.576 -0.033,102.864 0,31.35 0.054,62.699 -0.068,94.048 -0.015,3.831 1.246,6.738 3.845,9.323 8.138,8.091 16.227,16.23 24.396,24.289 C -4.118,-3.761 -2.457,-1.891 0,0"
       style="fill:#d0a449;fill-opacity:1;fill-rule:nonzero;stroke:none"
       transform="matrix(1.3333333,0,0,-1.3333333,210.52213,300.3128)"
       clip-path="url(#clipPath4)" />
    <path
       id="path5"
       d="m 0,0 c -12.137,-11.04 -21.569,-24.32 -35.249,-32.765 -1.376,-0.373 -2.202,0.502 -1.732,1.835 21.619,25.267 42.441,51.292 68.733,72.11 0.924,0.523 1.312,0.134 1.506,-0.646 0.51,-6.615 1.184,-13.222 1.501,-19.846 0.911,-19.069 -1.261,-37.096 -3.644,-56.121 -1.247,-9.962 -3.576,-20.506 -5.591,-30.356 -2.184,-10.679 -7.851,-19.724 -15.358,-27.486 -8.652,-8.945 -17.486,-17.727 -26.498,-26.31 -6.571,-6.257 -14.116,-11.041 -23.388,-12.316 -7.405,-1.019 -14.724,0.596 -21.722,2.928 -3.306,1.102 -6.062,3.122 -10.017,4.263 1.335,1.722 2.421,3.457 3.824,4.881 8.146,8.272 16.525,16.321 24.498,24.755 4.305,4.554 9.992,3.888 15.145,0.764 5.275,-3.198 10.87,-4.372 16.798,-4.153 1.261,0.047 3.357,1.746 3.549,2.93 5.034,31.023 11.824,61.912 8.107,93.69 C 0.401,-1.328 0.212,-0.829 0,0"
       style="fill:#d0a449;fill-opacity:1;fill-rule:nonzero;stroke:none"
       transform="matrix(1.3333333,0,0,-1.3333333,95.278533,425.89747)"
       clip-path="url(#clipPath6)" />
    <path
       id="path7"
       d="m 0,0 c 0,17.115 0.001,34.617 0,50.84 -0.001,10.774 -0.24,21.557 0.152,32.317 0.106,2.91 1.414,6.41 3.38,8.509 8.219,8.778 16.874,17.15 25.439,25.599 1.123,1.108 2.654,2.835 4.668,4.165 0,-2.208 0,-4.595 0,-5.949 C 33.638,89.875 33.576,64.268 33.706,38.663 33.724,34.982 32.484,32.198 30.007,29.724 21.69,21.418 13.412,13.072 5.04,4.821 3.748,3.548 2.044,1.415 0,0"
       style="fill:#d0a449;fill-opacity:1;fill-rule:nonzero;stroke:none"
       transform="matrix(1.3333333,0,0,-1.3333333,155.55093,321.91173)"
       clip-path="url(#clipPath8)" />
    <path
       id="path9"
       d="m 0,0 c 0,14.106 -0.15,27.882 0.156,40.844 0.047,2.033 1.815,4.356 3.382,5.969 8.174,8.416 16.513,16.674 24.869,24.912 1.321,1.303 3.019,2.961 5.121,4.476 0.129,-2.157 0.276,-4.225 0.278,-5.558 C 33.824,59.887 33.705,49.129 33.877,38.375 33.933,34.884 32.843,32.172 30.44,29.779 22.024,21.403 13.666,12.969 5.22,4.623 3.976,3.393 2.376,1.718 0,0"
       style="fill:#d0a449;fill-opacity:1;fill-rule:nonzero;stroke:none"
       transform="matrix(1.3333333,0,0,-1.3333333,81.290667,381.35227)"
       clip-path="url(#clipPath10)" />
    <path
       id="path11"
       d="m 0,0 v 6.643 c 0.001,70.815 -0.051,141.631 0.021,212.446 0.05,49.665 0.226,99.331 0.491,148.995 0.022,4.143 -1.284,7.251 -4.116,10.055 -8.056,7.975 -16.02,16.044 -24.088,24.006 -1.344,1.327 -3.04,3.355 -5.363,5.429 -0.128,-2.463 -0.281,-5.423 -0.281,-6.999 -0.015,-33.588 0.029,-67.176 -0.021,-100.765 -0.13,-86.611 -0.263,-173.223 -0.552,-259.834 -0.016,-4.773 1.456,-8.227 4.768,-11.448 C -21.116,20.727 -13.304,12.706 -5.337,4.844 -4,3.524 -2.351,1.944 0,0"
       style="fill:#d0a449;fill-opacity:1;fill-rule:nonzero;stroke:none"
       transform="matrix(1.3333333,0,0,-1.3333333,351.186,543.43133)"
       clip-path="url(#clipPath12)" />
    <path
       id="path13"
       d="m 0,0 v -6.563 c -0.001,-68.716 -0.154,-137.433 0.13,-206.148 0.055,-13.104 0.785,-25.155 0.785,-38.442 0,-2.082 4.381,-5.889 5.961,-7.517 4.482,-4.616 9.053,-8.166 13.677,-12.645 3.418,-3.312 7.318,-3.554 12.078,-3.425 4.194,0.114 7.52,0.392 11.221,0.437 15.406,0.187 30.817,0.141 46.225,0.047 6.622,-0.041 13.217,0.035 20.186,0.035 -0.667,1.689 -0.943,2.291 -1.785,3.888 -5.407,10.261 -10.367,19.18 -15.551,29.806 -8.076,16.555 -21.427,27.412 -33.561,39.798 -1.881,1.921 -4.107,3.505 -6.173,5.245 -0.7,0.25 -1.088,0.445 -1.138,-0.748 1.563,-4.603 2.649,-9.44 4.783,-13.761 4.931,-9.986 10.369,-19.721 15.814,-29.956 -1.099,-0.221 -1.846,-0.499 -2.594,-0.501 -10.786,-0.032 -21.576,0.138 -32.356,-0.115 -4.05,-0.095 -4.095,1.984 -4.09,4.944 0.052,34.288 0.033,68.576 0.033,102.864 0,31.35 -0.054,62.699 0.068,94.048 0.015,3.831 -1.246,6.738 -3.845,9.323 C 21.73,-21.295 13.641,-13.156 5.472,-5.097 4.118,-3.761 2.457,-1.891 0,0"
       style="fill:#d0a449;fill-opacity:1;fill-rule:nonzero;stroke:none"
       transform="matrix(1.3333333,0,0,-1.3333333,377.41573,300.3128)"
       clip-path="url(#clipPath14)" />
    <path
       id="path15"
       d="m 0,0 c 12.137,-11.04 21.569,-24.32 35.249,-32.765 1.376,-0.373 2.202,0.502 1.732,1.835 -21.619,25.267 -42.441,51.292 -68.733,72.11 -0.924,0.523 -1.312,0.134 -1.506,-0.646 -0.51,-6.615 -1.184,-13.222 -1.501,-19.846 -0.911,-19.069 1.261,-37.096 3.644,-56.121 1.247,-9.962 3.576,-20.506 5.591,-30.356 2.184,-10.679 7.851,-19.724 15.358,-27.486 8.652,-8.945 17.486,-17.727 26.498,-26.31 6.571,-6.257 14.116,-11.041 23.388,-12.316 7.405,-1.019 14.724,0.596 21.722,2.928 3.306,1.102 6.062,3.122 10.017,4.263 -1.335,1.722 -2.421,3.457 -3.824,4.881 -8.146,8.272 -16.525,16.321 -24.498,24.755 -4.305,4.554 -9.992,3.888 -15.145,0.764 -5.275,-3.198 -10.87,-4.372 -16.798,-4.153 -1.261,0.047 -3.357,1.746 -3.549,2.93 C 2.611,-64.51 -4.179,-33.621 -0.462,-1.843 -0.401,-1.328 -0.212,-0.829 0,0"
       style="fill:#d0a449;fill-opacity:1;fill-rule:nonzero;stroke:none"
       transform="matrix(1.3333333,0,0,-1.3333333,492.6592,425.89747)"
       clip-path="url(#clipPath16)" />
    <path
       id="path17"
       d="m 0,0 c 0,17.115 -0.001,34.617 0,50.84 0.001,10.774 0.24,21.557 -0.152,32.317 -0.106,2.91 -1.414,6.41 -3.38,8.509 -8.219,8.778 -16.874,17.15 -25.439,25.599 -1.123,1.108 -2.654,2.835 -4.668,4.165 0,-2.208 0,-4.595 0,-5.949 0.001,-25.606 0.063,-51.213 -0.067,-76.818 -0.018,-3.681 1.222,-6.465 3.699,-8.939 C -21.69,21.418 -13.412,13.072 -5.04,4.821 -3.748,3.548 -2.044,1.415 0,0"
       style="fill:#d0a449;fill-opacity:1;fill-rule:nonzero;stroke:none"
       transform="matrix(1.3333333,0,0,-1.3333333,432.3868,321.91173)"
       clip-path="url(#clipPath18)" />
    <path
       id="path19"
       d="m 0,0 c 0,14.106 0.15,27.882 -0.155,40.844 -0.048,2.033 -1.816,4.356 -3.383,5.969 -8.174,8.416 -16.513,16.674 -24.869,24.912 -1.321,1.303 -3.019,2.961 -5.121,4.476 -0.129,-2.157 -0.276,-4.225 -0.278,-5.558 -0.018,-10.756 0.101,-21.514 -0.071,-32.268 -0.056,-3.491 1.034,-6.203 3.437,-8.596 8.416,-8.376 16.774,-16.81 25.22,-25.156 C -3.976,3.393 -2.376,1.718 0,0"
       style="fill:#d0a449;fill-opacity:1;fill-rule:nonzero;stroke:none"
       transform="matrix(1.3333333,0,0,-1.3333333,506.64707,381.35227)"
       clip-path="url(#clipPath20)" />
  </g>
</svg>
