<?xml version="1.0" encoding="UTF-8" standalone="no"?>
<!-- Created with Inkscape (http://www.inkscape.org/) -->

<svg
   version="1.1"
   id="svg1"
   width="626.26398"
   height="666.66669"
   viewBox="0 0 626.26398 666.66669"
   xmlns="http://www.w3.org/2000/svg"
   xmlns:svg="http://www.w3.org/2000/svg">
  <defs
     id="defs1">
    <clipPath
       clipPathUnits="userSpaceOnUse"
       id="clipPath2">
      <path
         d="M 0,500 H 469.698 V 0 H 0 Z"
         transform="translate(-156.37161,-437.38261)"
         id="path2" />
    </clipPath>
    <clipPath
       clipPathUnits="userSpaceOnUse"
       id="clipPath4">
      <path
         d="M 0,500 H 469.698 V 0 H 0 Z"
         transform="translate(-147.3066,-322.93651)"
         id="path4" />
    </clipPath>
    <clipPath
       clipPathUnits="userSpaceOnUse"
       id="clipPath6">
      <path
         d="M 0,500 H 469.698 V 0 H 0 Z"
         transform="translate(-156.2299,-130.5924)"
         id="path6" />
    </clipPath>
    <clipPath
       clipPathUnits="userSpaceOnUse"
       id="clipPath8">
      <path
         d="M 0,500 H 469.698 V 0 H 0 Z"
         transform="translate(-89.516605,-283.27761)"
         id="path8" />
    </clipPath>
    <clipPath
       clipPathUnits="userSpaceOnUse"
       id="clipPath10">
      <path
         d="M 0,500 H 469.698 V 0 H 0 Z"
         transform="translate(-214.1617,-310.47381)"
         id="path10" />
    </clipPath>
    <clipPath
       clipPathUnits="userSpaceOnUse"
       id="clipPath12">
      <path
         d="M 0,500 H 469.698 V 0 H 0 Z"
         transform="translate(-313.32611,-437.38261)"
         id="path12" />
    </clipPath>
    <clipPath
       clipPathUnits="userSpaceOnUse"
       id="clipPath14">
      <path
         d="M 0,500 H 469.698 V 0 H 0 Z"
         transform="translate(-322.39111,-322.93651)"
         id="path14" />
    </clipPath>
    <clipPath
       clipPathUnits="userSpaceOnUse"
       id="clipPath16">
      <path
         d="M 0,500 H 469.698 V 0 H 0 Z"
         transform="translate(-313.46791,-130.5924)"
         id="path16" />
    </clipPath>
    <clipPath
       clipPathUnits="userSpaceOnUse"
       id="clipPath18">
      <path
         d="M 0,500 H 469.698 V 0 H 0 Z"
         transform="translate(-380.18111,-283.27761)"
         id="path18" />
    </clipPath>
    <clipPath
       clipPathUnits="userSpaceOnUse"
       id="clipPath20">
      <path
         d="M 0,500 H 469.698 V 0 H 0 Z"
         transform="translate(-255.53601,-310.47381)"
         id="path20" />
    </clipPath>
  </defs>
  <g
     id="layer-MC0" />
  <g
     id="layer-MC1" />
  <g
     id="layer-MC2">
    <path
       id="path1"
       d="m 0,0 c -17.525,-25.103 -36.653,-47.057 -44.191,-86.118 -1.953,-10.109 -7.036,-27.943 -4.533,-38.525 2.712,-11.471 25.488,-22.103 35.127,-32.862 26.235,-29.278 29.105,-79.88 29.884,-138.31 -11.686,6.233 -22.593,6.233 -32.72,6.233 -2.645,-33.994 0.192,-76.792 -0.564,-112.677 -8.302,6.211 -30.495,16.115 -33.992,28.328 -4.092,14.284 -0.003,36.586 0,55.522 v 54.392 c 10.978,0.779 18.481,-1.913 29.459,-1.134 -0.143,43.922 5.18,90.586 -14.731,116.713 -13.422,17.612 -31.648,22.534 -42.497,40.793 -0.779,65.024 18.851,100.697 45.898,134.841 C -19.098,20.94 -9.18,10.837 0,0"
       style="fill:#d0a449;fill-opacity:1;fill-rule:evenodd;stroke:none"
       transform="matrix(1.3333333,0,0,-1.3333333,208.49547,83.489867)"
       clip-path="url(#clipPath2)" />
    <path
       id="path3"
       d="m 0,0 c 8.636,-18.229 23.754,-30.5 35.127,-46.457 28.132,-39.472 38.397,-92.426 41.925,-158.635 -16.35,7.071 -26.462,8.727 -36.119,19.049 -2.179,39.961 -4.292,84.613 -14.871,115.79 -1.807,5.33 -4.318,13.622 -7.137,19.182 C 12.293,-37.998 8.208,-30.556 0.52,-20.493 -4.153,-14.38 -13.796,-9.197 -16.997,-1.132 -13.272,1.187 -5.81,0.834 0,0"
       style="fill:#d0a449;fill-opacity:1;fill-rule:evenodd;stroke:none"
       transform="matrix(1.3333333,0,0,-1.3333333,196.4088,236.08467)"
       clip-path="url(#clipPath4)" />
    <path
       id="path5"
       d="m 0,0 c 14.364,-2.128 25.699,-11.66 35.126,-21.745 -0.747,-36.268 1.643,-74.47 -0.99,-108.847 -13.092,6.925 -22.908,17.128 -32.86,27.193 C 0.519,-67.14 1.485,-33.431 0,0"
       style="fill:#d0a449;fill-opacity:1;fill-rule:evenodd;stroke:none"
       transform="matrix(1.3333333,0,0,-1.3333333,208.30653,492.54347)"
       clip-path="url(#clipPath6)" />
    <path
       id="path7"
       d="m 0,0 c -7.349,6.351 -21.943,15.808 -23.796,21.529 -3.103,9.582 -0.518,27.144 0,36.261 1.983,34.843 12.585,72.233 23.796,99.715 -7.334,10.192 -21.382,19.68 -31.185,25.717 -1.818,1.169 -2.402,1.688 -2.841,0.262 C -50.296,146.118 -68.671,69.445 -50.99,24.93 -28.83,12.34 -3.131,3.292 1.134,-27.196 -11.183,-41.692 -27.968,-51.725 -40.79,-65.719 v -95.182 c 10.747,-9.651 19.793,-21.002 33.992,-27.199 v 94.053 c 4.244,16.22 29.457,25.687 43.059,39.657 C 31.297,-26.813 17.864,-15.435 0,0"
       style="fill:#d0a449;fill-opacity:1;fill-rule:evenodd;stroke:none"
       transform="matrix(1.3333333,0,0,-1.3333333,119.35547,288.9632)"
       clip-path="url(#clipPath8)" />
    <path
       id="path9"
       d="m 0,0 c -6.939,5.893 -16.557,10.856 -20.398,18.129 -16.381,31.032 15.725,77.261 10.199,111.046 -3.636,22.217 -14.477,30.18 -28.902,42.562 -6.43,5.522 -13.275,14.878 -20.955,16.36 -11.441,2.208 -34.618,1.364 -50.978,0.715 -41.215,-1.636 -64.363,-4.403 -103.128,-2.981 9.407,-13.919 24.703,-29.805 51.515,-27.727 30.189,3.895 82.938,-1.343 117.322,0.533 7.347,-44.949 -33.566,-106.647 4.532,-135.976 18.669,-12.189 32.01,-25.53 45.325,-37.392 2.192,-1.953 9.473,-8.491 10.197,-3.401 C 15.658,-9.613 5.851,-4.97 0,0"
       style="fill:#d0a449;fill-opacity:1;fill-rule:evenodd;stroke:none"
       transform="matrix(1.3333333,0,0,-1.3333333,285.54893,252.7016)"
       clip-path="url(#clipPath10)" />
    <path
       id="path11"
       d="m 0,0 c 17.525,-25.103 36.653,-47.057 44.191,-86.118 1.953,-10.109 7.036,-27.943 4.533,-38.525 -2.712,-11.471 -25.488,-22.103 -35.127,-32.862 -26.235,-29.278 -29.105,-79.88 -29.884,-138.31 11.686,6.233 22.593,6.233 32.72,6.233 2.645,-33.994 -0.192,-76.792 0.564,-112.677 8.302,6.211 30.495,16.115 33.992,28.328 4.092,14.284 0.003,36.586 0,55.522 v 54.392 c -10.978,0.779 -18.481,-1.913 -29.459,-1.134 0.143,43.922 -5.18,90.586 14.731,116.713 13.422,17.612 31.648,22.534 42.497,40.793 C 79.537,-42.621 59.907,-6.948 32.861,27.196 19.098,20.94 9.18,10.837 0,0"
       style="fill:#d0a449;fill-opacity:1;fill-rule:evenodd;stroke:none"
       transform="matrix(1.3333333,0,0,-1.3333333,417.76813,83.489867)"
       clip-path="url(#clipPath12)" />
    <path
       id="path13"
       d="m 0,0 c -8.636,-18.229 -23.754,-30.5 -35.127,-46.457 -28.132,-39.472 -38.397,-92.426 -41.925,-158.635 16.35,7.071 26.462,8.727 36.119,19.049 2.179,39.961 4.292,84.613 14.871,115.79 1.807,5.33 4.318,13.622 7.137,19.182 6.632,13.073 10.717,20.515 18.405,30.578 4.673,6.113 14.316,11.296 17.517,19.361 C 13.272,1.187 5.81,0.834 0,0"
       style="fill:#d0a449;fill-opacity:1;fill-rule:evenodd;stroke:none"
       transform="matrix(1.3333333,0,0,-1.3333333,429.8548,236.08467)"
       clip-path="url(#clipPath14)" />
    <path
       id="path15"
       d="m 0,0 c -14.364,-2.128 -25.699,-11.66 -35.126,-21.745 0.747,-36.268 -1.643,-74.47 0.99,-108.847 13.092,6.925 22.908,17.128 32.86,27.193 C -0.519,-67.14 -1.485,-33.431 0,0"
       style="fill:#d0a449;fill-opacity:1;fill-rule:evenodd;stroke:none"
       transform="matrix(1.3333333,0,0,-1.3333333,417.9572,492.54347)"
       clip-path="url(#clipPath16)" />
    <path
       id="path17"
       d="m 0,0 c 7.349,6.351 21.943,15.808 23.796,21.529 3.103,9.582 0.518,27.144 0,36.261 C 21.813,92.633 11.211,130.023 0,157.505 c 7.334,10.192 21.382,19.68 31.185,25.717 1.818,1.169 2.402,1.688 2.841,0.262 C 50.296,146.118 68.671,69.445 50.99,24.93 28.83,12.34 3.131,3.292 -1.134,-27.196 11.183,-41.692 27.968,-51.725 40.79,-65.719 v -95.182 C 30.043,-170.552 20.997,-181.903 6.798,-188.1 v 94.053 C 2.554,-77.827 -22.659,-68.36 -36.261,-54.39 -31.297,-26.813 -17.864,-15.435 0,0"
       style="fill:#d0a449;fill-opacity:1;fill-rule:evenodd;stroke:none"
       transform="matrix(1.3333333,0,0,-1.3333333,506.90813,288.9632)"
       clip-path="url(#clipPath18)" />
    <path
       id="path19"
       d="M 0,0 C 6.939,5.893 16.557,10.856 20.398,18.129 36.779,49.161 4.673,95.39 10.199,129.175 c 3.636,22.217 14.477,30.18 28.902,42.562 6.43,5.522 13.275,14.878 20.955,16.36 11.441,2.208 34.618,1.364 50.978,0.715 41.215,-1.636 64.363,-4.403 103.128,-2.981 -9.407,-13.919 -24.703,-29.805 -51.515,-27.727 -30.189,3.895 -82.938,-1.343 -117.322,0.533 C 37.978,113.688 78.891,51.99 40.793,22.661 22.124,10.472 8.783,-2.869 -4.532,-14.731 -6.724,-16.684 -14.005,-23.222 -14.729,-18.132 -15.658,-9.613 -5.851,-4.97 0,0"
       style="fill:#d0a449;fill-opacity:1;fill-rule:evenodd;stroke:none"
       transform="matrix(1.3333333,0,0,-1.3333333,340.71467,252.7016)"
       clip-path="url(#clipPath20)" />
  </g>
</svg>
