<?xml version="1.0" encoding="UTF-8" standalone="no"?>
<!-- Created with Inkscape (http://www.inkscape.org/) -->

<svg
   version="1.1"
   id="svg1"
   width="619.39331"
   height="666.66669"
   viewBox="0 0 619.39331 666.66669"
   xmlns="http://www.w3.org/2000/svg"
   xmlns:svg="http://www.w3.org/2000/svg">
  <defs
     id="defs1">
    <clipPath
       clipPathUnits="userSpaceOnUse"
       id="clipPath2">
      <path
         d="M 0,500 H 464.545 V 0 H 0 Z"
         transform="translate(-384.57301,-299.57481)"
         id="path2" />
    </clipPath>
    <clipPath
       clipPathUnits="userSpaceOnUse"
       id="clipPath4">
      <path
         d="M 0,500 H 464.545 V 0 H 0 Z"
         transform="translate(-360.21541,-497.16271)"
         id="path4" />
    </clipPath>
    <clipPath
       clipPathUnits="userSpaceOnUse"
       id="clipPath6">
      <path
         d="M 0,500 H 464.545 V 0 H 0 Z"
         transform="translate(-369.07091,-223.16961)"
         id="path6" />
    </clipPath>
    <clipPath
       clipPathUnits="userSpaceOnUse"
       id="clipPath8">
      <path
         d="M 0,500 H 464.545 V 0 H 0 Z"
         transform="translate(-273.27871,-434.99461)"
         id="path8" />
    </clipPath>
    <clipPath
       clipPathUnits="userSpaceOnUse"
       id="clipPath10">
      <path
         d="M 0,500 H 464.545 V 0 H 0 Z"
         transform="translate(-28.014001,-214.31151)"
         id="path10" />
    </clipPath>
    <clipPath
       clipPathUnits="userSpaceOnUse"
       id="clipPath12">
      <path
         d="M 0,500 H 464.545 V 0 H 0 Z"
         transform="translate(-422.29171,-95.829405)"
         id="path12" />
    </clipPath>
    <clipPath
       clipPathUnits="userSpaceOnUse"
       id="clipPath14">
      <path
         d="M 0,500 H 464.545 V 0 H 0 Z"
         transform="translate(-79.971699,-299.57481)"
         id="path14" />
    </clipPath>
    <clipPath
       clipPathUnits="userSpaceOnUse"
       id="clipPath16">
      <path
         d="M 0,500 H 464.545 V 0 H 0 Z"
         transform="translate(-104.3293,-497.16271)"
         id="path16" />
    </clipPath>
    <clipPath
       clipPathUnits="userSpaceOnUse"
       id="clipPath18">
      <path
         d="M 0,500 H 464.545 V 0 H 0 Z"
         transform="translate(-95.473705,-223.16961)"
         id="path18" />
    </clipPath>
    <clipPath
       clipPathUnits="userSpaceOnUse"
       id="clipPath20">
      <path
         d="M 0,500 H 464.545 V 0 H 0 Z"
         transform="translate(-191.2659,-434.99461)"
         id="path20" />
    </clipPath>
    <clipPath
       clipPathUnits="userSpaceOnUse"
       id="clipPath22">
      <path
         d="M 0,500 H 464.545 V 0 H 0 Z"
         transform="translate(-42.253001,-95.829405)"
         id="path22" />
    </clipPath>
  </defs>
  <g
     id="layer-MC0" />
  <g
     id="layer-MC1">
    <path
       id="path1"
       d="m 0,0 c 5.704,-10.167 11.951,-27.452 18.638,-36.639 -12.943,-7.993 -21.124,-14.177 -33.118,-23.22 -7.994,11.801 -25.107,28.529 -23.17,43.249 1.386,10.521 16.34,14.285 23.06,21.954 -2.109,54.475 -0.489,113.504 -0.912,169.613 8.511,9.577 18.805,17.367 28.789,25.468 1.367,-31.799 3.323,-90.939 3.323,-133.986 0,-16.464 2.028,-38.746 -0.256,-48.263 C 14.694,11.262 3.368,7.081 0,0"
       style="fill:#d0a449;fill-opacity:1;fill-rule:evenodd;stroke:none"
       transform="matrix(1.3333333,0,0,-1.3333333,512.764,267.2336)"
       clip-path="url(#clipPath2)" />
    <path
       id="path3"
       d="m 0,0 c -13.578,-7.461 -23.819,-18.259 -34.327,-28.789 v -161.669 c 14.173,6.497 23.644,17.696 34.327,27.683 C -0.014,-109.234 0.018,-49.858 0,0"
       style="fill:#d0a449;fill-opacity:1;fill-rule:evenodd;stroke:none"
       transform="matrix(1.3333333,0,0,-1.3333333,480.2872,3.7830667)"
       clip-path="url(#clipPath4)" />
    <path
       id="path5"
       d="M 0,0 C 25.043,20.726 60.89,30.648 95.23,42.079 96.688,36.343 91.335,30.724 86.29,26.444 81.068,22.014 71.913,16.428 66.439,13.287 49.977,3.839 28.271,-1.812 9.005,-10.111 c -13.67,-5.894 -24.973,-12.535 -35.582,-19.784 -12.927,8.637 -23.721,20.797 -32.545,35.783 -11.807,20.046 -22.422,38.074 -26.142,67.197 -5.308,41.526 -0.408,91.425 -2.214,140.63 10.75,10.286 21.339,20.737 34.327,28.788 0.941,0.206 0.8,-0.673 0.862,-1.349 0.971,-52.359 -0.032,-129.406 0.243,-147.032 C -51.414,53.756 -17.761,26.007 0,0"
       style="fill:#d0a449;fill-opacity:1;fill-rule:evenodd;stroke:none"
       transform="matrix(1.3333333,0,0,-1.3333333,492.09453,369.1072)"
       clip-path="url(#clipPath6)" />
    <path
       id="path7"
       d="m 0,0 c 0.508,-0.761 0.499,-15.695 0.562,-16.368 0.897,-31.77 -0.723,-46.129 -1.109,-74.758 -0.351,-26.223 -0.237,-52.44 4.481,-75.3 3.852,-18.653 15.509,-44.39 26.525,-58.686 6.752,-8.764 15.624,-15.766 24.36,-24.363 -13.979,-23.668 -36.804,-38.492 -45.399,-67.545 -11.994,-9.047 -20.435,-21.645 -35.435,-27.683 7.993,28.918 28.961,44.863 44.293,66.437 -8.635,7.617 -19.597,18 -27.683,31.008 -23.404,37.65 -26.816,88.483 -26.816,153.05 0,21.289 -1.214,45.323 1.348,63.755 C -34.133,-25.124 -9.009,-7.613 0,0"
       style="fill:#d0a449;fill-opacity:1;fill-rule:evenodd;stroke:none"
       transform="matrix(1.3333333,0,0,-1.3333333,364.3716,86.673867)"
       clip-path="url(#clipPath8)" />
    <path
       id="path9"
       d="m 0,0 c 19.413,-9.674 53.659,-22.191 73.085,-35.433 18.187,-12.404 36.194,-32.874 50.937,-47.616 23.312,-23.313 51.335,-60.115 29.897,-98.554 32.194,0.203 64.975,-0.108 99.66,0 -2.125,11.679 -9.665,25.187 -5.538,43.188 7.313,31.9 42.608,64.12 65.333,84.157 28.985,25.557 64.877,40.43 94.122,54.258 0.896,-6.358 -5.255,-11.743 -10.355,-16.222 -4.639,-4.073 -11.834,-8.911 -17.328,-12.57 -16.559,-11.025 -41.232,-16.373 -59.796,-29.895 -19.464,-14.179 -43.428,-45.67 -36.541,-77.516 4.053,-18.744 15.029,-32.923 29.898,-43.183 -3.082,-6.704 -10.631,-11.602 -17.719,-17.716 -8.096,-6.988 -14.902,-14.414 -29.897,-15.504 -32.034,-2.334 -88.242,-2.213 -121.805,0 -23.401,1.541 -37.395,23.114 -48.723,32.112 15.349,13.188 34.257,32.567 31.006,63.116 -2.298,21.591 -24.315,50.919 -37.649,59.795 C 57.515,-36.889 17.98,-31.179 0,0"
       style="fill:#d0a449;fill-opacity:1;fill-rule:evenodd;stroke:none"
       transform="matrix(1.3333333,0,0,-1.3333333,37.352,380.918)"
       clip-path="url(#clipPath10)" />
    <path
       id="path11"
       d="m 0,0 c -9.838,-6.813 -16.574,-21.902 -29.897,-26.579 -20.461,-7.174 -46.968,2.518 -69.762,-4.429 7.189,14.589 22.236,21.321 33.218,32.112 3.884,-0.545 7.209,-1.649 12.181,-1.104 -1.955,11.404 -9.34,26.777 -16.61,36.541 9.829,12.684 21.398,23.633 36.543,31.004 C -26.108,41.808 -12.891,21.069 0,0"
       style="fill:#d0a449;fill-opacity:1;fill-rule:evenodd;stroke:none"
       transform="matrix(1.3333333,0,0,-1.3333333,563.0556,538.89413)"
       clip-path="url(#clipPath12)" />
    <path
       id="path13"
       d="m 0,0 c -5.704,-10.167 -11.951,-27.452 -18.638,-36.639 12.943,-7.993 21.124,-14.177 33.118,-23.22 7.994,11.801 25.107,28.529 23.17,43.249 -1.386,10.521 -16.34,14.285 -23.06,21.954 2.109,54.475 0.489,113.504 0.912,169.613 -8.511,9.577 -18.805,17.367 -28.789,25.468 -1.367,-31.799 -3.323,-90.939 -3.323,-133.986 0,-16.464 -2.028,-38.746 0.256,-48.263 C -14.694,11.262 -3.368,7.081 0,0"
       style="fill:#d0a449;fill-opacity:1;fill-rule:evenodd;stroke:none"
       transform="matrix(1.3333333,0,0,-1.3333333,106.62893,267.2336)"
       clip-path="url(#clipPath14)" />
    <path
       id="path15"
       d="M 0,0 C 13.578,-7.461 23.819,-18.259 34.327,-28.789 V -190.458 C 20.154,-183.961 10.683,-172.762 0,-162.775 0.014,-109.234 -0.018,-49.858 0,0"
       style="fill:#d0a449;fill-opacity:1;fill-rule:evenodd;stroke:none"
       transform="matrix(1.3333333,0,0,-1.3333333,139.10573,3.7830667)"
       clip-path="url(#clipPath16)" />
    <path
       id="path17"
       d="m 0,0 c -25.043,20.726 -60.89,30.648 -95.23,42.079 -1.458,-5.736 3.895,-11.355 8.94,-15.635 5.222,-4.43 14.377,-10.016 19.851,-13.157 16.462,-9.448 38.168,-15.099 57.434,-23.398 13.67,-5.894 24.973,-12.535 35.582,-19.784 12.927,8.637 23.721,20.797 32.545,35.783 11.807,20.046 22.422,38.074 26.142,67.197 5.308,41.526 0.408,91.425 2.214,140.63 -10.75,10.286 -21.339,20.737 -34.327,28.788 -0.941,0.206 -0.8,-0.673 -0.862,-1.349 C 51.318,188.795 52.321,111.748 52.046,94.122 51.414,53.756 17.761,26.007 0,0"
       style="fill:#d0a449;fill-opacity:1;fill-rule:evenodd;stroke:none"
       transform="matrix(1.3333333,0,0,-1.3333333,127.29827,369.1072)"
       clip-path="url(#clipPath18)" />
    <path
       id="path19"
       d="m 0,0 c -0.508,-0.761 -0.499,-15.695 -0.562,-16.368 -0.897,-31.77 0.723,-46.129 1.109,-74.758 0.351,-26.223 0.237,-52.44 -4.48,-75.3 -3.853,-18.653 -15.51,-44.39 -26.526,-58.686 -6.752,-8.764 -15.624,-15.766 -24.36,-24.363 13.979,-23.668 36.804,-38.492 45.399,-67.545 11.994,-9.047 20.435,-21.645 35.435,-27.683 -7.993,28.918 -28.961,44.863 -44.293,66.437 8.635,7.617 19.597,18 27.683,31.008 23.404,37.65 26.816,88.483 26.816,153.05 0,21.289 1.214,45.323 -1.348,63.755 C 34.133,-25.124 9.009,-7.613 0,0"
       style="fill:#d0a449;fill-opacity:1;fill-rule:evenodd;stroke:none"
       transform="matrix(1.3333333,0,0,-1.3333333,255.0212,86.673867)"
       clip-path="url(#clipPath20)" />
    <path
       id="path21"
       d="m 0,0 c 9.838,-6.813 16.574,-21.902 29.897,-26.579 20.461,-7.174 46.968,2.518 69.762,-4.429 C 92.47,-16.419 77.423,-9.687 66.441,1.104 62.557,0.559 59.232,-0.545 54.26,0 56.215,11.404 63.6,26.777 70.87,36.541 61.041,49.225 49.472,60.174 34.327,67.545 26.108,41.808 12.891,21.069 0,0"
       style="fill:#d0a449;fill-opacity:1;fill-rule:evenodd;stroke:none"
       transform="matrix(1.3333333,0,0,-1.3333333,56.337333,538.89413)"
       clip-path="url(#clipPath22)" />
  </g>
  <g
     id="layer-MC2" />
</svg>
