<?xml version="1.0" encoding="UTF-8" standalone="no"?>
<!-- Created with Inkscape (http://www.inkscape.org/) -->

<svg
   version="1.1"
   id="svg1"
   width="735.40399"
   height="666.66669"
   viewBox="0 0 735.40399 666.66669"
   xmlns="http://www.w3.org/2000/svg"
   xmlns:svg="http://www.w3.org/2000/svg">
  <defs
     id="defs1">
    <clipPath
       clipPathUnits="userSpaceOnUse"
       id="clipPath2">
      <path
         d="M 0,500 H 551.552 V 0 H 0 Z"
         transform="translate(-121.6884,-459.41251)"
         id="path2" />
    </clipPath>
    <clipPath
       clipPathUnits="userSpaceOnUse"
       id="clipPath4">
      <path
         d="M 0,500 H 551.552 V 0 H 0 Z"
         transform="translate(-73.718702,-388.66021)"
         id="path4" />
    </clipPath>
    <clipPath
       clipPathUnits="userSpaceOnUse"
       id="clipPath6">
      <path
         d="M 0,500 H 551.552 V 0 H 0 Z"
         transform="translate(-143.82891,-337.00211)"
         id="path6" />
    </clipPath>
    <clipPath
       clipPathUnits="userSpaceOnUse"
       id="clipPath8">
      <path
         d="M 0,500 H 551.552 V 0 H 0 Z"
         transform="translate(-49.120901,-332.08291)"
         id="path8" />
    </clipPath>
    <clipPath
       clipPathUnits="userSpaceOnUse"
       id="clipPath10">
      <path
         d="M 0,500 H 551.552 V 0 H 0 Z"
         transform="translate(-234.84291,-260.74641)"
         id="path10" />
    </clipPath>
    <clipPath
       clipPathUnits="userSpaceOnUse"
       id="clipPath12">
      <path
         d="M 0,500 H 551.552 V 0 H 0 Z"
         transform="translate(-68.798902,-232.45521)"
         id="path12" />
    </clipPath>
    <clipPath
       clipPathUnits="userSpaceOnUse"
       id="clipPath14">
      <path
         d="M 0,500 H 551.552 V 0 H 0 Z"
         transform="translate(-101.69901)"
         id="path14" />
    </clipPath>
    <clipPath
       clipPathUnits="userSpaceOnUse"
       id="clipPath16">
      <path
         d="M 0,500 H 551.552 V 0 H 0 Z"
         transform="translate(-429.86411,-459.41251)"
         id="path16" />
    </clipPath>
    <clipPath
       clipPathUnits="userSpaceOnUse"
       id="clipPath18">
      <path
         d="M 0,500 H 551.552 V 0 H 0 Z"
         transform="translate(-477.83381,-388.66021)"
         id="path18" />
    </clipPath>
    <clipPath
       clipPathUnits="userSpaceOnUse"
       id="clipPath20">
      <path
         d="M 0,500 H 551.552 V 0 H 0 Z"
         transform="translate(-407.72371,-337.00211)"
         id="path20" />
    </clipPath>
    <clipPath
       clipPathUnits="userSpaceOnUse"
       id="clipPath22">
      <path
         d="M 0,500 H 551.552 V 0 H 0 Z"
         transform="translate(-502.43161,-332.08291)"
         id="path22" />
    </clipPath>
    <clipPath
       clipPathUnits="userSpaceOnUse"
       id="clipPath24">
      <path
         d="M 0,500 H 551.552 V 0 H 0 Z"
         transform="translate(-316.70961,-260.74641)"
         id="path24" />
    </clipPath>
    <clipPath
       clipPathUnits="userSpaceOnUse"
       id="clipPath26">
      <path
         d="M 0,500 H 551.552 V 0 H 0 Z"
         transform="translate(-482.75361,-232.45521)"
         id="path26" />
    </clipPath>
    <clipPath
       clipPathUnits="userSpaceOnUse"
       id="clipPath28">
      <path
         d="M 0,500 H 551.552 V 0 H 0 Z"
         transform="translate(-449.85351)"
         id="path28" />
    </clipPath>
  </defs>
  <g
     id="layer-MC0" />
  <g
     id="layer-MC1" />
  <g
     id="layer-MC2" />
  <g
     id="layer-MC3">
    <path
       id="path1"
       d="M 0,0 C -2.157,-6.043 -6.311,-10.087 -7.382,-17.221 35.603,-43.25 56.852,23.554 93.476,11.07 c 18.598,-6.341 49.812,-46.831 52.884,-62.728 4.3,-22.198 0,-49.881 0,-73.796 v -72.57 c -7.512,9.549 -27.36,26.442 -30.748,41.822 -7.982,36.253 7.057,88.349 -1.226,125.453 -31.089,-2.695 -39.647,-30.64 -68.879,-34.439 -31.92,-4.149 -49.806,19.393 -63.954,39.359 C -30.448,-8.901 -48.58,17.856 -29.518,40.587 -17.902,28.836 -9.434,13.935 0,0"
       style="fill:#d0a449;fill-opacity:1;fill-rule:evenodd;stroke:none"
       transform="matrix(1.3333333,0,0,-1.3333333,162.2512,54.116667)"
       clip-path="url(#clipPath2)" />
    <path
       id="path3"
       d="m 0,0 h 121.768 c 5.435,-10.179 25.038,-25.936 28.286,-39.359 5.24,-21.645 0,-62.32 0,-87.329 v -86.094 c -6.851,2.542 -12.116,11.2 -17.221,18.452 -4.369,6.211 -11.936,15.059 -13.527,22.135 -3.954,17.597 0,42.62 0,63.96 v 63.957 C 91.41,-41.428 58.234,-43.856 28.291,-43.05 18.082,-29.478 6.661,-17.121 0,0"
       style="fill:#d0a449;fill-opacity:1;fill-rule:evenodd;stroke:none"
       transform="matrix(1.3333333,0,0,-1.3333333,98.2916,148.45307)"
       clip-path="url(#clipPath4)" />
    <path
       id="path5"
       d="M 0,0 C 1.716,0.571 1.826,-0.738 2.457,-1.231 10.54,-7.529 28.436,-30.968 30.749,-41.818 34.622,-60.03 28.311,-76.941 29.517,-95.934 17.852,-84.233 9.744,-68.969 0,-55.349 Z"
       style="fill:#d0a449;fill-opacity:1;fill-rule:evenodd;stroke:none"
       transform="matrix(1.3333333,0,0,-1.3333333,191.77187,217.33053)"
       clip-path="url(#clipPath6)" />
    <path
       id="path7"
       d="m 0,0 c 0.991,-0.651 1.997,-1.284 3.688,-1.232 28.462,-56.724 87.111,-77.986 125.457,-126.682 17.341,-22.026 35.332,-39.362 39.356,-73.798 -9.498,7.742 -24.507,0.801 -34.436,3.688 -13.388,3.894 -21.501,31.054 -30.749,40.593 6.466,5.42 22.731,1.046 33.206,2.457 -5.546,17.086 -23.777,24.918 -36.895,34.437 C 72.718,-101.014 48.37,-77.968 28.291,-49.198 17.607,-33.897 6.496,-17.992 0,0"
       style="fill:#d0a449;fill-opacity:1;fill-rule:evenodd;stroke:none"
       transform="matrix(1.3333333,0,0,-1.3333333,65.494533,223.88947)"
       clip-path="url(#clipPath8)" />
    <path
       id="path9"
       d="m 0,0 c 6.151,-4.459 28.347,-30.023 30.749,-40.588 5.44,-23.952 0,-67.362 0,-94.708 v -94.702 c -38.591,3.633 -85.645,-1.191 -124.226,2.457 -13.888,9.889 -21.029,26.53 -30.748,40.588 38.135,3.683 84.854,-1.216 122.994,2.462 C 1.637,-125.456 -0.82,-61.087 0,0"
       style="fill:#d0a449;fill-opacity:1;fill-rule:evenodd;stroke:none"
       transform="matrix(1.3333333,0,0,-1.3333333,313.12387,319.0048)"
       clip-path="url(#clipPath10)" />
    <path
       id="path11"
       d="m 0,0 c 49.877,-35.808 90.634,-80.74 109.467,-147.592 -17.777,7.642 -48.915,1.922 -72.568,3.689 -11.26,13.342 -22.696,26.504 -29.517,44.281 H 75.03 C 73.864,-68.899 42.81,-60.021 25.829,-41.818 13.788,-28.907 8.328,-15.519 0,0"
       style="fill:#d0a449;fill-opacity:1;fill-rule:evenodd;stroke:none"
       transform="matrix(1.3333333,0,0,-1.3333333,91.731867,356.7264)"
       clip-path="url(#clipPath12)" />
    <path
       id="path13"
       d="m 0,0 c -12.917,3.258 -20.289,16.13 -27.055,25.824 -6.666,9.549 -14.979,21.66 -15.99,35.673 7.472,-3.599 9.094,-13.047 15.99,-17.221 6.556,8.833 2.823,26.775 0,36.899 -30.678,8.993 -44.541,-16.936 -44.281,-46.738 -6.646,9.814 -26.59,25.783 -29.518,39.356 -2.915,13.523 2.343,28.467 6.151,35.668 8.225,15.55 32.405,23.522 51.658,9.84 C -25.969,107.164 3.688,58.074 6.151,29.517 7.217,17.186 6.556,5.8 0,0"
       style="fill:#d0a449;fill-opacity:1;fill-rule:evenodd;stroke:none"
       transform="matrix(1.3333333,0,0,-1.3333333,135.59867,666.66667)"
       clip-path="url(#clipPath14)" />
    <path
       id="path15"
       d="M 0,0 C 2.157,-6.043 6.311,-10.087 7.382,-17.221 -35.603,-43.25 -56.852,23.554 -93.477,11.07 c -18.597,-6.341 -49.811,-46.831 -52.883,-62.728 -4.299,-22.198 0,-49.881 0,-73.796 v -72.57 c 7.512,9.549 27.36,26.442 30.748,41.822 7.982,36.253 -7.057,88.349 1.226,125.453 31.089,-2.695 39.647,-30.64 68.879,-34.439 31.92,-4.149 49.806,19.393 63.954,39.359 C 30.448,-8.901 48.58,17.856 29.518,40.587 17.902,28.836 9.434,13.935 0,0"
       style="fill:#d0a449;fill-opacity:1;fill-rule:evenodd;stroke:none"
       transform="matrix(1.3333333,0,0,-1.3333333,573.15213,54.116667)"
       clip-path="url(#clipPath16)" />
    <path
       id="path17"
       d="m 0,0 h -121.768 c -5.435,-10.179 -25.038,-25.936 -28.286,-39.359 -5.24,-21.645 0,-62.32 0,-87.329 v -86.094 c 6.851,2.542 12.116,11.2 17.221,18.452 4.369,6.211 11.936,15.059 13.527,22.135 3.954,17.597 0,42.62 0,63.96 v 63.957 c 27.896,2.85 61.072,0.422 91.015,1.228 C -18.082,-29.478 -6.661,-17.121 0,0"
       style="fill:#d0a449;fill-opacity:1;fill-rule:evenodd;stroke:none"
       transform="matrix(1.3333333,0,0,-1.3333333,637.11173,148.45307)"
       clip-path="url(#clipPath18)" />
    <path
       id="path19"
       d="m 0,0 c -1.716,0.571 -1.826,-0.738 -2.457,-1.231 -8.083,-6.298 -25.979,-29.737 -28.292,-40.587 -3.873,-18.212 2.438,-35.123 1.232,-54.116 11.665,11.701 19.773,26.965 29.517,40.585 z"
       style="fill:#d0a449;fill-opacity:1;fill-rule:evenodd;stroke:none"
       transform="matrix(1.3333333,0,0,-1.3333333,543.6316,217.33053)"
       clip-path="url(#clipPath20)" />
    <path
       id="path21"
       d="m 0,0 c -0.991,-0.651 -1.997,-1.284 -3.688,-1.232 -28.462,-56.724 -87.111,-77.986 -125.457,-126.682 -17.341,-22.026 -35.332,-39.362 -39.356,-73.798 9.498,7.742 24.507,0.801 34.436,3.688 13.388,3.894 21.501,31.054 30.749,40.593 -6.466,5.42 -22.731,1.046 -33.206,2.457 5.546,17.086 23.777,24.918 36.895,34.437 26.909,19.523 51.257,42.569 71.336,71.339 C -17.607,-33.897 -6.496,-17.992 0,0"
       style="fill:#d0a449;fill-opacity:1;fill-rule:evenodd;stroke:none"
       transform="matrix(1.3333333,0,0,-1.3333333,669.9088,223.88947)"
       clip-path="url(#clipPath22)" />
    <path
       id="path23"
       d="m 0,0 c -6.151,-4.459 -28.347,-30.023 -30.749,-40.588 -5.44,-23.952 0,-67.362 0,-94.708 v -94.702 c 38.591,3.633 85.645,-1.191 124.226,2.457 13.888,9.889 21.029,26.53 30.748,40.588 -38.135,3.683 -84.854,-1.216 -122.994,2.462 C -1.637,-125.456 0.82,-61.087 0,0"
       style="fill:#d0a449;fill-opacity:1;fill-rule:evenodd;stroke:none"
       transform="matrix(1.3333333,0,0,-1.3333333,422.27947,319.0048)"
       clip-path="url(#clipPath24)" />
    <path
       id="path25"
       d="m 0,0 c -49.877,-35.808 -90.634,-80.74 -109.467,-147.592 17.777,7.642 48.915,1.922 72.568,3.689 11.26,13.342 22.696,26.504 29.517,44.281 H -75.03 c 1.166,30.723 32.22,39.601 49.201,57.804 C -13.788,-28.907 -8.328,-15.519 0,0"
       style="fill:#d0a449;fill-opacity:1;fill-rule:evenodd;stroke:none"
       transform="matrix(1.3333333,0,0,-1.3333333,643.67147,356.7264)"
       clip-path="url(#clipPath26)" />
    <path
       id="path27"
       d="m 0,0 c 12.917,3.258 20.289,16.13 27.055,25.824 6.666,9.549 14.979,21.66 15.99,35.673 -7.472,-3.599 -9.093,-13.047 -15.99,-17.221 -6.556,8.833 -2.823,26.775 0,36.899 30.678,8.993 44.541,-16.936 44.281,-46.738 6.646,9.814 26.59,25.783 29.518,39.356 2.915,13.523 -2.343,28.467 -6.151,35.668 -8.225,15.55 -32.405,23.522 -51.658,9.84 C 25.969,107.164 -3.688,58.074 -6.151,29.517 -7.217,17.186 -6.556,5.8 0,0"
       style="fill:#d0a449;fill-opacity:1;fill-rule:evenodd;stroke:none"
       transform="matrix(1.3333333,0,0,-1.3333333,599.80467,666.66667)"
       clip-path="url(#clipPath28)" />
  </g>
</svg>
