<?xml version="1.0" encoding="UTF-8" standalone="no"?>
<!-- Created with Inkscape (http://www.inkscape.org/) -->

<svg
   version="1.1"
   id="svg1"
   width="525.224"
   height="666.66669"
   viewBox="0 0 525.224 666.66669"
   xmlns="http://www.w3.org/2000/svg"
   xmlns:svg="http://www.w3.org/2000/svg">
  <defs
     id="defs1">
    <clipPath
       clipPathUnits="userSpaceOnUse"
       id="clipPath2">
      <path
         d="M 0,500 H 393.918 V 0 H 0 Z"
         transform="translate(-188.5366)"
         id="path2" />
    </clipPath>
    <clipPath
       clipPathUnits="userSpaceOnUse"
       id="clipPath4">
      <path
         d="M 0,500 H 393.918 V 0 H 0 Z"
         transform="translate(-142.435,-42.159299)"
         id="path4" />
    </clipPath>
    <clipPath
       clipPathUnits="userSpaceOnUse"
       id="clipPath6">
      <path
         d="M 0,500 H 393.918 V 0 H 0 Z"
         transform="translate(-0.0551,-377.40771)"
         id="path6" />
    </clipPath>
    <clipPath
       clipPathUnits="userSpaceOnUse"
       id="clipPath8">
      <path
         d="M 0,500 H 393.918 V 0 H 0 Z"
         transform="translate(-205.381)"
         id="path8" />
    </clipPath>
    <clipPath
       clipPathUnits="userSpaceOnUse"
       id="clipPath10">
      <path
         d="M 0,500 H 393.918 V 0 H 0 Z"
         transform="translate(-251.48251,-42.159299)"
         id="path10" />
    </clipPath>
    <clipPath
       clipPathUnits="userSpaceOnUse"
       id="clipPath12">
      <path
         d="M 0,500 H 393.918 V 0 H 0 Z"
         transform="translate(-393.86251,-377.40771)"
         id="path12" />
    </clipPath>
  </defs>
  <g
     id="layer-MC0" />
  <g
     id="layer-MC1" />
  <g
     id="layer-MC2">
    <path
       id="path1"
       d="m 0,0 c -2.079,1.441 -3.647,2.243 -4.851,3.408 -7.906,7.657 -15.703,15.423 -23.605,23.084 -2.772,2.687 -3.513,5.809 -3.511,9.565 0.072,141.816 0.064,283.631 0.052,425.446 0,7.493 0.737,6.639 -6.716,6.645 -32.591,0.026 -65.182,0.011 -97.774,0.011 -1.788,0 -3.577,0 -5.977,0 v -99.681 c -2.408,2.183 -4.119,3.622 -5.431,4.892 -7.804,7.55 -15.593,14.899 -23.145,22.133 -2.112,2.023 -3.425,6.437 -3.45,9.34 -0.251,29.039 -0.141,58.081 -0.176,87.122 -0.003,2.326 0.148,4.601 -0.076,7.545 1.273,0 2.373,0.051 3.951,0.051 40.551,0 81.103,-0.031 121.654,0.022 8.379,0.011 16.758,0.461 25.136,0.413 1.864,-0.01 4.041,-0.945 5.502,-2.03 5.925,-4.393 12.906,-10.331 17.803,-17.087 0.859,-1.185 0.626,-7.064 0.626,-11.889 0,-2.602 0.011,-5.243 0.011,-7.867 C -0.006,309.136 -0.001,157.149 0,5.162 Z"
       style="fill:#d0a449;fill-opacity:1;fill-rule:nonzero;stroke:none"
       transform="matrix(1.3333333,0,0,-1.3333333,251.38213,666.66667)"
       clip-path="url(#clipPath2)" />
    <path
       id="path3"
       d="m 0,0 c -2.056,1.388 -3.657,2.166 -4.866,3.336 -8.124,7.86 -16.357,15.628 -24.1,23.839 -1.986,2.106 -3.302,5.694 -3.303,8.602 -0.056,109.962 0.082,219.924 0.178,329.887 0.007,7.517 0.697,6.782 -7.089,6.822 -4.754,0.025 -9.509,0.005 -14.602,0.005 V 271.039 c -2.156,1.571 -3.795,3.264 -5.098,4.525 -7.797,7.554 -15.494,15.209 -23.279,22.776 -2.581,2.509 -3.774,5.288 -3.76,8.989 0.126,31.988 0.073,51.699 0.073,83.687 0,1.458 -0.06,10.369 -0.06,13.103 9.248,0 14.31,0 21.589,-0.054 10.805,-0.081 21.621,0.226 32.425,0.012 2.293,-0.046 5.078,-1.18 6.739,-2.735 8.576,-8.033 14.503,-13.968 22.883,-22.201 0.556,-0.546 2.223,-2.633 2.362,-5.733 -0.139,-2.223 -0.032,-4.204 -0.034,-6.19 C -0.012,304.127 0,241.036 0,177.945 0,123.108 0,68.272 0,13.435 Z"
       style="fill:#d0a449;fill-opacity:1;fill-rule:nonzero;stroke:none"
       transform="matrix(1.3333333,0,0,-1.3333333,189.91333,610.45427)"
       clip-path="url(#clipPath4)" />
    <path
       id="path5"
       d="m 0,0 c 10.341,-8.715 20.57,-16.638 29.936,-25.444 7.872,-7.4 14.693,-15.871 22.068,-23.788 5.164,-5.545 10.714,-10.759 15.657,-16.482 5.318,-6.157 10.198,-12.686 15.14,-19.147 3.861,-5.048 7.639,-8.498 11.211,-13.744 1.176,-1.728 2.251,-5.622 2.256,-7.623 0.182,-63.802 0.227,-127.604 0.287,-191.406 10e-4,-0.585 -0.076,-1.169 -0.176,-2.608 -1.512,0.921 -2.843,1.438 -3.778,2.346 -8.532,8.288 -17.131,16.518 -25.363,25.086 -1.621,1.687 -2.418,4.747 -2.452,7.189 -0.218,15.324 -0.187,30.652 -0.046,45.977 0.026,2.869 -0.921,4.493 -3.399,6.009 -6.174,3.776 -12.124,7.907 -18.48,12.104 v -64.087 c -1.972,1.198 -3.31,1.716 -4.251,2.628 -8.433,8.181 -16.924,16.311 -25.069,24.762 -1.637,1.698 -2.621,4.685 -2.646,7.091 -0.208,19.745 -0.131,39.493 -0.111,59.24 0.006,6.13 5.641,9.222 11.127,6.135 0.773,-0.435 1.485,-0.99 2.178,-1.546 13.291,-10.671 26.575,-21.351 40.586,-32.612 0,2.14 0,3.662 0,5.184 0.001,33.157 -0.05,66.315 0.069,99.472 0.014,3.904 -0.881,7.038 -3.551,10.02 -8.976,10.026 -17.713,20.202 -26.56,30.339 -0.51,0.625 -0.979,1.189 -1.639,1.752 -0.077,-1.504 -0.023,-5.32 -0.023,-6.823 -0.004,-13.853 0.388,-27.719 -0.129,-41.552 -0.245,-6.552 2.349,-11.243 6.508,-15.697 2.63,-2.818 5.203,-5.694 7.66,-8.657 0.873,-1.052 1.328,-2.436 1.974,-3.669 0.456,-0.942 -0.616,-1.908 -1.315,-1.403 -1.98,1.331 -3.647,2.508 -5.213,3.859 -13.745,11.859 -26.157,25.146 -38.724,38.196 -2.428,2.522 -3.494,7.168 -3.571,10.866 C -0.2,-60.503 0,-42.963 0,-25.427 Z"
       style="fill:#d0a449;fill-opacity:1;fill-rule:nonzero;stroke:none"
       transform="matrix(1.3333333,0,0,-1.3333333,0.07346667,163.4564)"
       clip-path="url(#clipPath6)" />
    <path
       id="path7"
       d="m 0,0 c 2.079,1.441 3.647,2.243 4.851,3.408 7.906,7.657 15.703,15.423 23.605,23.084 2.772,2.687 3.512,5.809 3.511,9.565 -0.072,141.816 -0.064,283.631 -0.052,425.446 0,7.493 -0.737,6.639 6.716,6.645 32.591,0.026 65.182,0.011 97.774,0.011 1.788,0 3.577,0 5.977,0 v -99.681 c 2.408,2.183 4.119,3.622 5.431,4.892 7.804,7.55 15.593,14.899 23.145,22.133 2.112,2.023 3.425,6.437 3.45,9.34 0.251,29.039 0.141,58.081 0.176,87.122 0.003,2.326 -0.148,4.601 0.076,7.545 -1.273,0 -2.373,0.051 -3.951,0.051 -40.551,0 -81.103,-0.031 -121.654,0.022 -8.379,0.011 -16.758,0.461 -25.136,0.413 -1.864,-0.01 -4.041,-0.945 -5.502,-2.03 -5.925,-4.393 -12.906,-10.331 -17.803,-17.087 -0.859,-1.185 -0.626,-7.064 -0.626,-11.889 0,-2.602 -0.011,-5.243 -0.011,-7.867 C 0.006,309.136 0.001,157.149 0,5.162 Z"
       style="fill:#d0a449;fill-opacity:1;fill-rule:nonzero;stroke:none"
       transform="matrix(1.3333333,0,0,-1.3333333,273.84133,666.66667)"
       clip-path="url(#clipPath8)" />
    <path
       id="path9"
       d="m 0,0 c 2.056,1.388 3.657,2.166 4.866,3.336 8.124,7.86 16.357,15.628 24.1,23.839 1.986,2.106 3.302,5.694 3.303,8.602 0.056,109.962 -0.082,219.924 -0.178,329.887 -0.007,7.517 -0.697,6.782 7.089,6.822 4.754,0.025 9.509,0.005 14.602,0.005 V 271.039 c 2.156,1.571 3.795,3.264 5.098,4.525 7.797,7.554 15.494,15.209 23.279,22.776 2.581,2.509 3.774,5.288 3.76,8.989 -0.126,31.988 -0.073,51.699 -0.073,83.687 0,1.458 0.06,10.369 0.06,13.103 -9.248,0 -14.31,0 -21.589,-0.054 -10.805,-0.081 -21.621,0.226 -32.425,0.012 -2.293,-0.046 -5.078,-1.18 -6.739,-2.735 -8.576,-8.033 -14.503,-13.968 -22.883,-22.201 -0.556,-0.546 -2.223,-2.633 -2.362,-5.733 0.139,-2.223 0.032,-4.204 0.034,-6.19 C 0.012,304.127 0,241.036 0,177.945 0,123.108 0,68.272 0,13.435 Z"
       style="fill:#d0a449;fill-opacity:1;fill-rule:nonzero;stroke:none"
       transform="matrix(1.3333333,0,0,-1.3333333,335.31,610.45427)"
       clip-path="url(#clipPath10)" />
    <path
       id="path11"
       d="m 0,0 c -10.341,-8.715 -20.57,-16.638 -29.936,-25.444 -7.872,-7.4 -14.693,-15.871 -22.068,-23.788 -5.164,-5.545 -10.714,-10.759 -15.657,-16.482 -5.318,-6.157 -10.198,-12.686 -15.14,-19.147 -3.861,-5.048 -7.639,-8.498 -11.211,-13.744 -1.176,-1.728 -2.251,-5.622 -2.256,-7.623 -0.182,-63.802 -0.227,-127.604 -0.287,-191.406 -10e-4,-0.585 0.076,-1.169 0.176,-2.608 1.512,0.921 2.843,1.438 3.778,2.346 8.532,8.288 17.131,16.518 25.363,25.086 1.621,1.687 2.418,4.747 2.452,7.189 0.218,15.324 0.187,30.652 0.046,45.977 -0.026,2.869 0.921,4.493 3.399,6.009 6.174,3.776 12.124,7.907 18.48,12.104 v -64.087 c 1.972,1.198 3.31,1.716 4.251,2.628 8.433,8.181 16.924,16.311 25.069,24.762 1.637,1.698 2.621,4.685 2.646,7.091 0.208,19.745 0.131,39.493 0.111,59.24 -0.006,6.13 -5.641,9.222 -11.127,6.135 -0.773,-0.435 -1.485,-0.99 -2.178,-1.546 -13.291,-10.671 -26.575,-21.351 -40.586,-32.612 0,2.14 0,3.662 0,5.184 -0.001,33.157 0.05,66.315 -0.069,99.472 -0.014,3.904 0.881,7.038 3.551,10.02 8.976,10.026 17.713,20.202 26.56,30.339 0.51,0.625 0.979,1.189 1.639,1.752 0.077,-1.504 0.023,-5.32 0.023,-6.823 0.004,-13.853 -0.388,-27.719 0.129,-41.552 0.245,-6.552 -2.349,-11.243 -6.508,-15.697 -2.63,-2.818 -5.203,-5.694 -7.66,-8.657 -0.873,-1.052 -1.328,-2.436 -1.974,-3.669 -0.456,-0.942 0.616,-1.908 1.315,-1.403 1.98,1.331 3.647,2.508 5.213,3.859 13.745,11.859 26.157,25.146 38.724,38.196 2.428,2.522 3.494,7.168 3.571,10.866 C 0.2,-60.503 0,-42.963 0,-25.427 Z"
       style="fill:#d0a449;fill-opacity:1;fill-rule:nonzero;stroke:none"
       transform="matrix(1.3333333,0,0,-1.3333333,525.15,163.4564)"
       clip-path="url(#clipPath12)" />
  </g>
</svg>
