<?xml version="1.0" encoding="UTF-8" standalone="no"?>
<!-- Created with Inkscape (http://www.inkscape.org/) -->

<svg
   version="1.1"
   id="svg1"
   width="502.616"
   height="666.66669"
   viewBox="0 0 502.616 666.66669"
   xmlns="http://www.w3.org/2000/svg"
   xmlns:svg="http://www.w3.org/2000/svg">
  <defs
     id="defs1">
    <clipPath
       clipPathUnits="userSpaceOnUse"
       id="clipPath2">
      <path
         d="M 0,500 H 376.962 V 0 H 0 Z"
         transform="translate(-149.47371,-297.59241)"
         id="path2" />
    </clipPath>
    <clipPath
       clipPathUnits="userSpaceOnUse"
       id="clipPath4">
      <path
         d="M 0,500 H 376.962 V 0 H 0 Z"
         transform="translate(-90.864002,-301.20851)"
         id="path4" />
    </clipPath>
    <clipPath
       clipPathUnits="userSpaceOnUse"
       id="clipPath6">
      <path
         d="M 0,500 H 376.962 V 0 H 0 Z"
         transform="translate(-130.4001,-220.0332)"
         id="path6" />
    </clipPath>
    <clipPath
       clipPathUnits="userSpaceOnUse"
       id="clipPath8">
      <path
         d="M 0,500 H 376.962 V 0 H 0 Z"
         transform="translate(-33.773401,-436.14891)"
         id="path8" />
    </clipPath>
    <clipPath
       clipPathUnits="userSpaceOnUse"
       id="clipPath10">
      <path
         d="M 0,500 H 376.962 V 0 H 0 Z"
         transform="translate(-172.4359,-184.9245)"
         id="path10" />
    </clipPath>
    <clipPath
       clipPathUnits="userSpaceOnUse"
       id="clipPath12">
      <path
         d="M 0,500 H 376.962 V 0 H 0 Z"
         transform="translate(-184.2039,-92.769705)"
         id="path12" />
    </clipPath>
    <clipPath
       clipPathUnits="userSpaceOnUse"
       id="clipPath14">
      <path
         d="M 0,500 H 376.962 V 0 H 0 Z"
         transform="translate(-227.4883,-297.59241)"
         id="path14" />
    </clipPath>
    <clipPath
       clipPathUnits="userSpaceOnUse"
       id="clipPath16">
      <path
         d="M 0,500 H 376.962 V 0 H 0 Z"
         transform="translate(-286.09801,-301.20851)"
         id="path16" />
    </clipPath>
    <clipPath
       clipPathUnits="userSpaceOnUse"
       id="clipPath18">
      <path
         d="M 0,500 H 376.962 V 0 H 0 Z"
         transform="translate(-246.56191,-220.0332)"
         id="path18" />
    </clipPath>
    <clipPath
       clipPathUnits="userSpaceOnUse"
       id="clipPath20">
      <path
         d="M 0,500 H 376.962 V 0 H 0 Z"
         transform="translate(-343.18861,-436.14891)"
         id="path20" />
    </clipPath>
    <clipPath
       clipPathUnits="userSpaceOnUse"
       id="clipPath22">
      <path
         d="M 0,500 H 376.962 V 0 H 0 Z"
         transform="translate(-204.52611,-184.9245)"
         id="path22" />
    </clipPath>
    <clipPath
       clipPathUnits="userSpaceOnUse"
       id="clipPath24">
      <path
         d="M 0,500 H 376.962 V 0 H 0 Z"
         transform="translate(-192.7581,-92.769705)"
         id="path24" />
    </clipPath>
  </defs>
  <g
     id="layer-MC0" />
  <g
     id="layer-MC1" />
  <g
     id="layer-MC2">
    <path
       id="path1"
       d="m 0,0 c 3.831,-12.34 10.705,-22.361 16.019,-33.262 -12.893,-8.463 -20.325,-19.88 -35.25,-27.06 -2.443,14.661 -20.663,28.416 -19.224,43.455 0.888,9.284 11.549,10.113 21.087,21.686 1.833,27.498 2.905,107.005 1.975,151.81 -0.142,6.845 -0.091,18.372 1.421,24.241 1.422,5.516 17.341,15.187 27.717,21.538 0.285,-30.374 1.14,-86.51 1.14,-125.299 C 14.879,39.323 20.159,12.761 0,0"
       style="fill:#d0a449;fill-opacity:1;fill-rule:evenodd;stroke:none"
       transform="matrix(1.3333333,0,0,-1.3333333,199.29827,269.8768)"
       clip-path="url(#clipPath2)" />
    <path
       id="path3"
       d="m 0,0 c 0,24.005 -0.005,52.204 0,80.724 0,27.446 -0.298,57.592 0,79.518 0.149,10.937 24.782,20.868 33.489,31.327 2.185,-16.705 1.236,-51.194 1.241,-81.93 0,-29.113 1.095,-63.404 0,-79.518 C 33.883,17.654 9.741,6.339 0,0"
       style="fill:#d0a449;fill-opacity:1;fill-rule:evenodd;stroke:none"
       transform="matrix(1.3333333,0,0,-1.3333333,121.152,265.05533)"
       clip-path="url(#clipPath4)" />
    <path
       id="path5"
       d="m 0,0 c 11.604,4.059 23.995,17.6 39.692,21.684 3.367,-5.427 0.518,-10.383 0,-19.277 C 14.006,-5.172 -8.969,-15.384 -26.049,-31.327 -45.516,-6.471 -78.985,30.665 -84.35,72.29 c -3.543,27.49 -2.478,58.859 -2.478,91.566 0,16.335 -0.739,34.103 0,48.194 0.535,10.208 24.287,21.637 34.73,31.326 1.055,0.221 1.171,-0.47 1.242,-1.205 0.95,-53.6 -2.319,-115.866 0,-149.401 C -48.133,53.382 -16.953,25.836 0,0"
       style="fill:#d0a449;fill-opacity:1;fill-rule:evenodd;stroke:none"
       transform="matrix(1.3333333,0,0,-1.3333333,173.8668,373.28907)"
       clip-path="url(#clipPath6)" />
    <path
       id="path7"
       d="m 0,0 c 1.055,0.221 1.166,-0.47 1.237,-1.203 -2.008,-57.406 -4.264,-105.036 0.344,-156.63 3.581,-40.091 35.673,-73.364 57.79,-96.96 -20.61,-21.951 -38.726,-37.223 -46.63,-66.898 -11.745,-9.07 -20.84,-20.723 -34.73,-27.709 6.495,30.234 29.168,44.76 43.416,67.468 -27.316,25.439 -48.494,62.34 -53.34,118.074 -1.766,20.326 -1.86,43.816 -1.86,66.267 0,21.407 0.186,58.449 1.86,66.264 C -28.946,-17.478 -7.329,-10.038 0,0"
       style="fill:#d0a449;fill-opacity:1;fill-rule:evenodd;stroke:none"
       transform="matrix(1.3333333,0,0,-1.3333333,45.0312,85.1348)"
       clip-path="url(#clipPath8)" />
    <path
       id="path9"
       d="m 0,0 c -17.603,-9.367 -40.345,-18.341 -60.176,-31.913 -20.82,-14.25 -40.252,-43.647 -38.455,-69.88 1.585,-23.14 12.375,-41.492 32.252,-51.81 -9.822,-12.55 -22.506,-22.316 -35.972,-31.321 -11.064,6.922 -19.155,16.512 -26.049,27.708 -4.335,9.375 -7.207,19.713 -4.962,38.558 2.64,22.179 19.816,43.584 36.161,62.765 15.01,17.613 34.966,36.172 51.91,46.874 13.404,8.468 32.923,14.295 42.755,21.742 C -0.12,8.305 -0.404,5.682 0,0"
       style="fill:#d0a449;fill-opacity:1;fill-rule:evenodd;stroke:none"
       transform="matrix(1.3333333,0,0,-1.3333333,229.91453,420.10067)"
       clip-path="url(#clipPath10)" />
    <path
       id="path11"
       d="m 0,0 c -9.827,-6.815 -17.181,-23.635 -31.01,-27.709 -20.957,-6.172 -45.663,1.927 -69.466,-3.613 12.881,13.266 22.42,33.205 47.136,31.322 -5.259,12.967 -10.375,26.798 -17.82,37.642 9.928,12.046 21.343,22.795 36.43,29.831 C -25.888,42.333 -13.274,20.84 0,0"
       style="fill:#d0a449;fill-opacity:1;fill-rule:evenodd;stroke:none"
       transform="matrix(1.3333333,0,0,-1.3333333,245.6052,542.97373)"
       clip-path="url(#clipPath12)" />
    <path
       id="path13"
       d="m 0,0 c -3.831,-12.34 -10.705,-22.361 -16.019,-33.262 12.893,-8.463 20.325,-19.88 35.25,-27.06 2.443,14.661 20.663,28.416 19.224,43.455 -0.888,9.284 -11.549,10.113 -21.087,21.686 -1.833,27.498 -2.905,107.005 -1.975,151.81 0.142,6.845 0.091,18.372 -1.421,24.241 -1.422,5.516 -17.341,15.187 -27.717,21.538 -0.285,-30.374 -1.14,-86.51 -1.14,-125.299 C -14.879,39.323 -20.159,12.761 0,0"
       style="fill:#d0a449;fill-opacity:1;fill-rule:evenodd;stroke:none"
       transform="matrix(1.3333333,0,0,-1.3333333,303.31773,269.8768)"
       clip-path="url(#clipPath14)" />
    <path
       id="path15"
       d="m 0,0 c 0,24.005 0.005,52.204 0,80.724 0,27.446 0.298,57.592 0,79.518 -0.149,10.937 -24.782,20.868 -33.489,31.327 -2.185,-16.705 -1.236,-51.194 -1.241,-81.93 0,-29.113 -1.095,-63.404 0,-79.518 C -33.883,17.654 -9.741,6.339 0,0"
       style="fill:#d0a449;fill-opacity:1;fill-rule:evenodd;stroke:none"
       transform="matrix(1.3333333,0,0,-1.3333333,381.464,265.05533)"
       clip-path="url(#clipPath16)" />
    <path
       id="path17"
       d="m 0,0 c -11.604,4.059 -23.995,17.6 -39.692,21.684 -3.367,-5.427 -0.518,-10.383 0,-19.277 25.686,-7.579 48.661,-17.791 65.741,-33.734 19.467,24.856 52.936,61.992 58.301,103.617 3.543,27.49 2.478,58.859 2.478,91.566 0,16.335 0.739,34.103 0,48.194 -0.535,10.208 -24.287,21.637 -34.73,31.326 -1.055,0.221 -1.171,-0.47 -1.242,-1.205 -0.95,-53.6 2.319,-115.866 0,-149.401 C 48.133,53.382 16.953,25.836 0,0"
       style="fill:#d0a449;fill-opacity:1;fill-rule:evenodd;stroke:none"
       transform="matrix(1.3333333,0,0,-1.3333333,328.7492,373.28907)"
       clip-path="url(#clipPath18)" />
    <path
       id="path19"
       d="m 0,0 c -1.055,0.221 -1.166,-0.47 -1.237,-1.203 2.008,-57.406 4.264,-105.036 -0.344,-156.63 -3.581,-40.091 -35.673,-73.364 -57.79,-96.96 20.61,-21.951 38.726,-37.223 46.63,-66.898 11.745,-9.07 20.84,-20.723 34.73,-27.709 -6.495,30.234 -29.167,44.76 -43.416,67.468 27.316,25.439 48.494,62.34 53.34,118.074 1.766,20.326 1.86,43.816 1.86,66.267 0,21.407 -0.186,58.449 -1.86,66.264 C 28.946,-17.478 7.329,-10.038 0,0"
       style="fill:#d0a449;fill-opacity:1;fill-rule:evenodd;stroke:none"
       transform="matrix(1.3333333,0,0,-1.3333333,457.5848,85.1348)"
       clip-path="url(#clipPath20)" />
    <path
       id="path21"
       d="m 0,0 c 17.603,-9.367 40.345,-18.341 60.176,-31.913 20.82,-14.25 40.252,-43.647 38.455,-69.88 -1.585,-23.14 -12.375,-41.492 -32.252,-51.81 9.822,-12.55 22.506,-22.316 35.972,-31.321 11.064,6.922 19.155,16.512 26.049,27.708 4.335,9.375 7.207,19.713 4.962,38.558 -2.64,22.179 -19.816,43.584 -36.161,62.765 C 82.191,-38.28 62.235,-19.721 45.291,-9.019 31.887,-0.551 12.368,5.276 2.536,12.723 0.12,8.305 0.404,5.682 0,0"
       style="fill:#d0a449;fill-opacity:1;fill-rule:evenodd;stroke:none"
       transform="matrix(1.3333333,0,0,-1.3333333,272.70147,420.10067)"
       clip-path="url(#clipPath22)" />
    <path
       id="path23"
       d="m 0,0 c 9.827,-6.815 17.181,-23.635 31.01,-27.709 20.957,-6.172 45.663,1.927 69.466,-3.613 C 87.595,-18.056 78.056,1.883 53.34,0 58.599,12.967 63.715,26.798 71.16,37.642 61.232,49.688 49.817,60.437 34.73,67.473 25.888,42.333 13.274,20.84 0,0"
       style="fill:#d0a449;fill-opacity:1;fill-rule:evenodd;stroke:none"
       transform="matrix(1.3333333,0,0,-1.3333333,257.0108,542.97373)"
       clip-path="url(#clipPath24)" />
  </g>
</svg>
