<?xml version="1.0" encoding="UTF-8" standalone="no"?>
<!-- Created with Inkscape (http://www.inkscape.org/) -->

<svg
   version="1.1"
   id="svg1"
   width="608.25336"
   height="666.66669"
   viewBox="0 0 608.25336 666.66669"
   xmlns="http://www.w3.org/2000/svg"
   xmlns:svg="http://www.w3.org/2000/svg">
  <defs
     id="defs1">
    <clipPath
       clipPathUnits="userSpaceOnUse"
       id="clipPath2">
      <path
         d="M 0,500 H 456.19 V 0 H 0 Z"
         transform="translate(-143.0047,-1.6088975)"
         id="path2" />
    </clipPath>
    <clipPath
       clipPathUnits="userSpaceOnUse"
       id="clipPath4">
      <path
         d="M 0,500 H 456.19 V 0 H 0 Z"
         transform="translate(-1.2991,-262.2303)"
         id="path4" />
    </clipPath>
    <clipPath
       clipPathUnits="userSpaceOnUse"
       id="clipPath6">
      <path
         d="M 0,500 H 456.19 V 0 H 0 Z"
         transform="translate(-65.855602,-499.88591)"
         id="path6" />
    </clipPath>
    <clipPath
       clipPathUnits="userSpaceOnUse"
       id="clipPath8">
      <path
         d="M 0,500 H 456.19 V 0 H 0 Z"
         transform="translate(-313.18581,-1.6088975)"
         id="path8" />
    </clipPath>
    <clipPath
       clipPathUnits="userSpaceOnUse"
       id="clipPath10">
      <path
         d="M 0,500 H 456.19 V 0 H 0 Z"
         transform="translate(-454.89141,-262.2303)"
         id="path10" />
    </clipPath>
    <clipPath
       clipPathUnits="userSpaceOnUse"
       id="clipPath12">
      <path
         d="M 0,500 H 456.19 V 0 H 0 Z"
         transform="translate(-390.33481,-499.88591)"
         id="path12" />
    </clipPath>
  </defs>
  <g
     id="layer-MC0" />
  <g
     id="layer-MC1" />
  <g
     id="layer-MC2">
    <path
       id="path1"
       d="m 0,0 c 5.085,6.035 9.971,12.425 15.318,18.06 24.72,26.047 37.081,55.807 36.973,89.495 -0.044,13.792 -3.087,27.174 -11.889,39.031 -1.818,2.447 -4.145,4.605 -6.781,7.492 -6.654,-8.127 -12.847,-15.69 -19.814,-24.198 -7.085,31.631 -17.031,61.032 -35.482,89.332 10.327,8.651 21.166,17.491 31.684,26.613 8.872,7.695 17.513,15.606 25.906,23.701 1.486,1.433 1.734,4.235 1.737,6.405 0.089,60.866 0.071,121.731 0.072,182.597 0,1.582 0,4.257 0,6.684 2.174,-1.319 3.803,-3.127 5.037,-4.193 8.243,-7.12 16.563,-14.181 24.467,-21.582 1.884,-1.765 3.216,-4.74 3.229,-7.165 0.201,-36.383 0.242,-72.768 0.099,-109.152 -0.083,-21.09 -0.641,-42.178 -0.81,-63.268 -0.046,-5.657 0.117,-11.311 0.117,-16.974 0,-3.861 -1.286,-5.489 -3.858,-7.994 -9.079,-8.844 -17.431,-17.823 -26.854,-26.383 -3.543,-3.219 -4.524,-6.083 -2.667,-10.437 2.849,-6.678 4.777,-13.657 7.412,-21.443 4.546,4.608 8.55,8.667 12.664,12.837 13.371,-9.177 19.719,-21.191 22.477,-34.859 C 85.655,121.809 76.416,91.486 57.382,63.721 45.21,45.967 29.838,29.883 15.675,13.197 11.392,8.15 6.354,3.596 1.662,-1.184 0.612,-2.109 -0.719,-1.437 0,0"
       style="fill:#d0a449;fill-opacity:1;fill-rule:nonzero;stroke:none"
       transform="matrix(1.3333333,0,0,-1.3333333,190.67293,664.52147)"
       clip-path="url(#clipPath2)" />
    <path
       id="path3"
       d="m 0,0 c 11.845,-19.327 23.69,-38.654 35.535,-57.981 0.327,0.047 0.655,0.095 0.982,0.143 V 4.17 c 3.18,-0.35 5.621,-0.827 7.752,-1.727 14.364,-6.071 29.836,-11.407 40.405,-22.572 7.429,-7.849 14.167,-16.376 19.887,-25.255 20.259,-31.452 34.158,-65.057 41.651,-100.572 3.516,-16.668 1.686,-33.397 -1.678,-49.978 -3.926,-19.345 -10.028,-38.183 -17.502,-56.695 -2.386,-5.907 -3.88,-6.994 -10.891,-6.912 -12.181,0.143 -24.361,0.385 -36.542,0.565 -3.402,0.051 -4.202,1.158 -2.989,4.086 7.499,18.098 14.804,36.257 22.24,54.375 0.71,1.732 1.881,3.319 2.838,4.974 0.497,-0.13 0.994,-0.26 1.49,-0.39 -2.579,-8.449 -5.158,-16.897 -7.86,-25.752 11.616,0 22.717,-0.084 33.81,0.135 1.07,0.021 2.833,1.832 3.023,2.972 2.915,17.508 1.004,34.722 -4.088,51.795 -9.693,32.5 -23.347,63.56 -43.357,92.312 -3.955,5.681 -8.716,10.931 -13.106,16.381 -0.498,-0.166 -0.995,-0.333 -1.493,-0.499 -0.094,-1.38 -0.267,-2.761 -0.27,-4.142 -0.023,-10.819 0.153,-21.642 -0.147,-32.456 -0.064,-2.333 -1.132,-5.177 -2.896,-6.849 -8.047,-7.628 -16.506,-14.921 -25.363,-22.821 -2.634,2.946 -5.339,5.247 -7.063,8.016 -11.309,18.165 -22.451,36.411 -33.505,54.696 -1.185,1.961 -2.027,4.345 -2.048,6.54 -0.168,17.716 -0.105,35.433 -0.091,53.15 0.001,0.753 0.209,1.506 0.32,2.259 C -0.877,0.501 -0.449,0.595 0,0"
       style="fill:#d0a449;fill-opacity:1;fill-rule:nonzero;stroke:none"
       transform="matrix(1.3333333,0,0,-1.3333333,1.7321333,317.02627)"
       clip-path="url(#clipPath4)" />
    <path
       id="path5"
       d="m 0,0 c 5.429,0.125 11.296,-0.075 15.495,-0.027 12.964,0.15 30.118,0.121 43.081,0.141 7.286,0.011 8.429,-2.118 12.846,-6.05 6.807,-6.059 13.61,-12.151 20.539,-18.121 2.678,-2.307 3.962,-4.859 3.953,-8.256 -0.102,-36.101 0.04,-72.204 -0.104,-108.305 -0.084,-21.218 0.16,-42.691 -0.088,-63.91 -0.027,-2.28 0,-4.007 -0.429,-6.582 -0.678,-4.078 -0.598,-6.752 -3.931,-9.564 -12.212,-10.303 -24.083,-20.915 -36.075,-31.417 -1.068,-0.935 -7.027,-5.806 -7.283,-6.042 -6.858,10.521 -15.001,18.286 -25.326,28.342 1.754,1.697 2.813,2.789 3.951,3.814 10.855,9.778 21.666,19.594 32.631,29.276 2.562,2.262 3.791,4.575 3.785,7.839 -0.099,51.11 -0.122,102.221 0.034,153.331 0.012,4.028 -1.425,4.826 -5.784,4.883 -6.862,0.088 -12.667,0.035 -18.976,0.338 -2.4,0.116 -5.311,0.549 -6.984,1.946 C 22.514,-21 13.992,-13.359 5.43,-5.76 4.375,-4.825 1.822,-2.365 0,0"
       style="fill:#d0a449;fill-opacity:1;fill-rule:nonzero;stroke:none"
       transform="matrix(1.3333333,0,0,-1.3333333,87.807467,0.15213333)"
       clip-path="url(#clipPath6)" />
    <path
       id="path7"
       d="m 0,0 c -5.085,6.035 -9.971,12.425 -15.318,18.06 -24.72,26.047 -37.081,55.807 -36.973,89.495 0.044,13.792 3.087,27.174 11.889,39.031 1.818,2.447 4.145,4.605 6.781,7.492 6.654,-8.127 12.847,-15.69 19.814,-24.198 7.085,31.631 17.031,61.032 35.482,89.332 -10.327,8.651 -21.166,17.491 -31.684,26.613 -8.872,7.695 -17.513,15.606 -25.906,23.701 -1.486,1.433 -1.734,4.235 -1.737,6.405 -0.089,60.866 -0.071,121.731 -0.072,182.597 0,1.582 0,4.257 0,6.684 -2.174,-1.319 -3.803,-3.127 -5.037,-4.193 -8.243,-7.12 -16.563,-14.181 -24.467,-21.582 -1.884,-1.765 -3.216,-4.74 -3.229,-7.165 -0.201,-36.383 -0.242,-72.768 -0.099,-109.152 0.083,-21.09 0.641,-42.178 0.81,-63.268 0.046,-5.657 -0.117,-11.311 -0.117,-16.974 0,-3.861 1.286,-5.489 3.858,-7.994 9.079,-8.844 17.431,-17.823 26.854,-26.383 3.543,-3.219 4.524,-6.083 2.667,-10.437 -2.849,-6.678 -4.777,-13.657 -7.412,-21.443 -4.546,4.608 -8.55,8.667 -12.664,12.837 -13.371,-9.177 -19.719,-21.191 -22.477,-34.859 -6.618,-32.79 2.621,-63.113 21.655,-90.878 C -45.21,45.967 -29.838,29.883 -15.675,13.197 -11.392,8.15 -6.354,3.596 -1.662,-1.184 -0.612,-2.109 0.719,-1.437 0,0"
       style="fill:#d0a449;fill-opacity:1;fill-rule:nonzero;stroke:none"
       transform="matrix(1.3333333,0,0,-1.3333333,417.58107,664.52147)"
       clip-path="url(#clipPath8)" />
    <path
       id="path9"
       d="m 0,0 c -11.845,-19.327 -23.69,-38.654 -35.535,-57.981 -0.327,0.047 -0.655,0.095 -0.982,0.143 V 4.17 c -3.18,-0.35 -5.621,-0.827 -7.752,-1.727 -14.364,-6.071 -29.836,-11.407 -40.405,-22.572 -7.429,-7.849 -14.167,-16.376 -19.887,-25.255 -20.259,-31.452 -34.158,-65.057 -41.651,-100.572 -3.516,-16.668 -1.686,-33.397 1.678,-49.978 3.926,-19.345 10.028,-38.183 17.502,-56.695 2.386,-5.907 3.88,-6.994 10.891,-6.912 12.181,0.143 24.361,0.385 36.542,0.565 3.402,0.051 4.202,1.158 2.989,4.086 -7.499,18.098 -14.804,36.257 -22.24,54.375 -0.71,1.732 -1.881,3.319 -2.838,4.974 -0.497,-0.13 -0.994,-0.26 -1.49,-0.39 2.579,-8.449 5.158,-16.897 7.86,-25.752 -11.616,0 -22.717,-0.084 -33.81,0.135 -1.07,0.021 -2.833,1.832 -3.023,2.972 -2.915,17.508 -1.004,34.722 4.088,51.795 9.693,32.5 23.347,63.56 43.357,92.312 3.955,5.681 8.716,10.931 13.106,16.381 0.498,-0.166 0.995,-0.333 1.493,-0.499 0.094,-1.38 0.267,-2.761 0.27,-4.142 0.023,-10.819 -0.153,-21.642 0.147,-32.456 0.064,-2.333 1.132,-5.177 2.896,-6.849 8.047,-7.628 16.506,-14.921 25.363,-22.821 2.634,2.946 5.339,5.247 7.063,8.016 11.309,18.165 22.451,36.411 33.505,54.696 1.185,1.961 2.027,4.345 2.048,6.54 0.168,17.716 0.105,35.433 0.091,53.15 C 1.275,-1.7 1.067,-0.947 0.956,-0.194 0.877,0.501 0.449,0.595 0,0"
       style="fill:#d0a449;fill-opacity:1;fill-rule:nonzero;stroke:none"
       transform="matrix(1.3333333,0,0,-1.3333333,606.52187,317.02627)"
       clip-path="url(#clipPath10)" />
    <path
       id="path11"
       d="m 0,0 c -5.429,0.125 -11.296,-0.075 -15.495,-0.027 -12.964,0.15 -30.118,0.121 -43.081,0.141 -7.286,0.011 -8.429,-2.118 -12.846,-6.05 -6.807,-6.059 -13.61,-12.151 -20.539,-18.121 -2.678,-2.307 -3.962,-4.859 -3.953,-8.256 0.102,-36.101 -0.04,-72.204 0.104,-108.305 0.084,-21.218 -0.16,-42.691 0.088,-63.91 0.027,-2.28 0,-4.007 0.429,-6.582 0.678,-4.078 0.598,-6.752 3.931,-9.564 12.212,-10.303 24.083,-20.915 36.075,-31.417 1.068,-0.935 7.027,-5.806 7.283,-6.042 6.858,10.521 15.001,18.286 25.326,28.342 -1.754,1.697 -2.813,2.789 -3.951,3.814 -10.855,9.778 -21.666,19.594 -32.631,29.276 -2.562,2.262 -3.791,4.575 -3.785,7.839 0.099,51.11 0.122,102.221 -0.034,153.331 -0.012,4.028 1.425,4.826 5.784,4.883 6.862,0.088 12.667,0.035 18.976,0.338 2.4,0.116 5.311,0.549 6.984,1.946 8.821,7.364 17.343,15.005 25.905,22.604 1.055,0.935 3.608,3.395 5.43,5.76"
       style="fill:#d0a449;fill-opacity:1;fill-rule:nonzero;stroke:none"
       transform="matrix(1.3333333,0,0,-1.3333333,520.4464,0.15213333)"
       clip-path="url(#clipPath12)" />
  </g>
</svg>
